<?xml version="1.0" encoding="UTF-8" standalone="no"?>
<!-- Generator: Adobe InDesign 5.0 SVG Export Plug-in, SVG Library version: 6.0 build 100 -->

<svg
   version="1.1"
   x="0pt"
   y="0pt"
   width="403.93726pt"
   height="165.82651pt"
   xml:space="preserve"
   id="svg403"
   xmlns="http://www.w3.org/2000/svg"
   xmlns:svg="http://www.w3.org/2000/svg"><defs
   id="defs407" />
<clipPath
   id="clp1"
   fill="none">
	<path
   shape-rendering="crispEdges"
   stroke="#000000"
   d="M 0,0 H 566.929 V 277.795 H 0 Z"
   id="path2" />
</clipPath>
<g
   clip-path="url(#clp1)"
   fill="none"
   id="g401"
   transform="translate(-14.173,-42.5199)">
	<g
   transform="translate(0,-15.1181)"
   id="g7">
		<path
   stroke="#000000"
   d="M 14.673,58.138 V 278.24 H 552.256 V 58.138 Z"
   id="path5" />
	</g>
	<g
   transform="translate(160.6024,252.8971)"
   id="g11">
		<path
   fill="#000000"
   d="m -136.556,-198.642 c 0,0 0,0.781 0,0.781 0,0.737 0.333,1.968 1.84,1.968 0.875,0 1.867,-0.494 1.867,-2.342 0,0 0,-5.764 0,-5.764 h -0.874 c 0,0 0,5.83 0,5.83 0,0.77 -0.226,1.364 -1.038,1.364 -0.605,0 -0.975,-0.341 -0.975,-1.287 0,0 0,-0.55 0,-0.55 z m 8.586,2.54 v -5.752 h -0.793 c 0,0 0,3.168 0,3.168 0,0.836 -0.298,1.914 -1.3,1.914 -0.514,0 -0.911,-0.319 -0.911,-1.265 0,0 0,-3.817 0,-3.817 h -0.793 c 0,0 0,4.136 0,4.136 0,1.374 0.838,1.781 1.533,1.781 0.758,0 1.164,-0.351 1.498,-1.022 0,0 0.018,0.022 0.018,0.022 v 0.835 z m 4.636,-4.114 c 0,-0.286 -0.117,-1.803 -1.804,-1.803 -0.93,0 -1.785,0.571 -1.785,1.836 0,0.792 0.432,1.199 1.09,1.397 0,0 0.921,0.275 0.921,0.275 0.677,0.209 0.939,0.363 0.939,0.825 0,0.638 -0.514,0.913 -1.083,0.913 -1.119,0 -1.227,-0.726 -1.254,-1.177 0,0 -0.766,0 -0.766,0 0.027,0.693 0.162,2.012 2.029,2.012 1.065,0 1.867,-0.714 1.867,-1.902 0,-0.781 -0.342,-1.221 -1.325,-1.518 0,0 -0.794,-0.242 -0.794,-0.242 -0.614,-0.187 -0.857,-0.297 -0.857,-0.77 0,-0.715 0.695,-0.814 0.939,-0.814 1.002,0 1.11,0.605 1.119,0.968 -0.002,0 0.764,0 0.764,0 z m 2.796,-0.836 v -0.802 h -0.758 v -1.606 h -0.793 v 1.606 h -0.64 v 0.802 h 0.64 c 0,0 0,3.796 0,3.796 0,0.693 0.171,1.231 0.955,1.231 0.081,0 0.307,-0.044 0.595,-0.077 0,0 0,-0.758 0,-0.758 0,0 -0.28,0 -0.28,0 -0.162,0 -0.478,0 -0.478,-0.451 0,0 0,-3.741 0,-3.741 z m 5.06,0 v -0.802 h -0.794 c 0,0 0,-0.716 0,-0.716 0,-0.462 0.126,-0.672 0.469,-0.672 0.099,0 0.226,0.011 0.325,0.022 0,0 0,-0.868 0,-0.868 -0.126,-0.011 -0.244,-0.022 -0.361,-0.022 -0.775,0 -1.226,0.395 -1.226,1.264 0,0 0,0.991 0,0.991 h -0.649 v 0.802 h 0.649 v 4.95 h 0.793 v -4.95 h 0.794 z m 0.191,2.068 c 0,1.485 0.685,3.035 2.191,3.035 1.507,0 2.191,-1.55 2.191,-3.035 0,-1.485 -0.685,-3.035 -2.191,-3.035 -1.507,0 -2.191,1.55 -2.191,3.035 z m 0.819,0 c 0,-0.77 0.235,-2.201 1.372,-2.201 1.137,0 1.372,1.43 1.372,2.201 0,0.771 -0.235,2.201 -1.372,2.201 -1.137,0 -1.372,-1.43 -1.372,-2.201 z m 5.277,-5.015 h -0.793 v 7.897 h 0.793 z m 2.002,0 h -0.793 v 7.897 h 0.793 z m 0.921,5.015 c 0,1.485 0.685,3.035 2.191,3.035 1.507,0 2.191,-1.55 2.191,-3.035 0,-1.485 -0.685,-3.035 -2.191,-3.035 -1.506,0 -2.191,1.55 -2.191,3.035 z m 0.82,0 c 0,-0.77 0.235,-2.201 1.372,-2.201 1.137,0 1.372,1.43 1.372,2.201 0,0.771 -0.235,2.201 -1.372,2.201 -1.137,0 -1.372,-1.43 -1.372,-2.201 z m 6.973,-1.573 h 0.018 l 0.956,4.455 h 0.821 l 1.371,-5.752 h -0.794 l -0.956,4.521 h -0.018 l -0.92,-4.521 h -0.884 l -0.911,4.521 h -0.018 l -0.902,-4.521 h -0.866 l 1.362,5.752 h 0.821 z m 8.108,-0.495 v -0.802 h -0.758 v -1.606 h -0.793 v 1.606 h -0.64 v 0.802 h 0.64 c 0,0 0,3.796 0,3.796 0,0.693 0.171,1.231 0.955,1.231 0.081,0 0.307,-0.044 0.595,-0.077 0,0 0,-0.758 0,-0.758 0,0 -0.28,0 -0.28,0 -0.162,0 -0.478,0 -0.478,-0.451 0,0 0,-3.741 0,-3.741 z m 4.619,1.034 c 0,-1.638 -0.919,-2.001 -1.65,-2.001 -0.758,0 -1.155,0.571 -1.381,0.934 0,0 -0.018,0 -0.018,0 v -2.914 h -0.793 v 7.897 h 0.793 c 0,0 0,-3.135 0,-3.135 0,-1.452 0.668,-1.914 1.318,-1.914 0.758,0 0.939,0.506 0.939,1.287 0,0 0,3.762 0,3.762 h 0.793 c -0.001,0 -0.001,-3.916 -0.001,-3.916 z m 4.384,2.112 c -0.027,0.429 -0.469,1.134 -1.218,1.134 -0.911,0 -1.372,-0.693 -1.372,-1.893 0,0 3.446,0 3.446,0 0,-2.035 -0.667,-3.354 -2.029,-3.354 -1.561,0 -2.263,1.418 -2.263,3.2 0,1.662 0.784,2.882 2.11,2.882 0.758,0 1.065,-0.22 1.281,-0.395 0.595,-0.483 0.811,-1.298 0.838,-1.573 0,-0.001 -0.793,-0.001 -0.793,-0.001 z m -2.589,-1.528 c 0,-0.892 0.578,-1.717 1.308,-1.717 0.966,0 1.272,0.826 1.317,1.717 0.001,0 -2.625,0 -2.625,0 z m 7.712,-2.42 h -0.793 v 5.752 h 0.793 z m 0,-1.046 v -1.099 h -0.793 v 1.099 z m 5.033,2.882 c 0,-1.638 -0.919,-2.001 -1.65,-2.001 -0.812,0 -1.254,0.67 -1.426,0.978 0,0 -0.018,0 -0.018,0 v -0.813 h -0.748 v 5.752 h 0.793 c 0,0 0,-3.134 0,-3.134 0,-1.563 0.794,-1.915 1.245,-1.915 0.776,0 1.011,0.506 1.011,1.507 0,0 0,3.542 0,3.542 h 0.793 c 0,0 0,-3.916 0,-3.916 z m 4.618,-0.198 c 0,-0.286 -0.117,-1.803 -1.804,-1.803 -0.93,0 -1.785,0.571 -1.785,1.836 0,0.792 0.432,1.199 1.09,1.397 0,0 0.921,0.275 0.921,0.275 0.677,0.209 0.939,0.363 0.939,0.825 0,0.638 -0.514,0.913 -1.083,0.913 -1.119,0 -1.227,-0.726 -1.254,-1.177 0,0 -0.766,0 -0.766,0 0.027,0.693 0.162,2.012 2.029,2.012 1.065,0 1.867,-0.714 1.867,-1.902 0,-0.781 -0.342,-1.221 -1.325,-1.518 0,0 -0.794,-0.242 -0.794,-0.242 -0.614,-0.187 -0.857,-0.297 -0.857,-0.77 0,-0.715 0.695,-0.814 0.939,-0.814 1.002,0 1.11,0.605 1.119,0.968 -0.002,0 0.764,0 0.764,0 z m 2.796,-0.836 v -0.802 h -0.758 v -1.606 h -0.793 v 1.606 h -0.64 v 0.802 h 0.64 c 0,0 0,3.796 0,3.796 0,0.693 0.171,1.231 0.955,1.231 0.081,0 0.307,-0.044 0.595,-0.077 0,0 0,-0.758 0,-0.758 0,0 -0.28,0 -0.28,0 -0.162,0 -0.478,0 -0.478,-0.451 0,0 0,-3.741 0,-3.741 z m 1.678,1.606 c 0,-0.836 0.469,-1.54 1.209,-1.54 0,0 0.298,0 0.298,0 0,0 0,-1 0,-1 -0.063,-0.022 -0.108,-0.033 -0.207,-0.033 -0.595,0 -1.01,0.45 -1.326,1.121 0,0 -0.018,0 -0.018,0 v -0.956 h -0.748 v 5.752 h 0.793 c -10e-4,0 -10e-4,-3.344 -10e-4,-3.344 z m 6.061,3.344 v -5.752 h -0.793 c 0,0 0,3.168 0,3.168 0,0.836 -0.298,1.914 -1.3,1.914 -0.514,0 -0.911,-0.319 -0.911,-1.265 0,0 0,-3.817 0,-3.817 h -0.793 c 0,0 0,4.136 0,4.136 0,1.374 0.838,1.781 1.533,1.781 0.758,0 1.164,-0.351 1.498,-1.022 0,0 0.018,0.022 0.018,0.022 v 0.835 z m 4.907,-3.817 c -0.063,-1.001 -0.532,-2.1 -1.768,-2.1 -1.56,0 -2.263,1.418 -2.263,3.2 0,1.662 0.784,2.881 2.11,2.881 1.38,0 1.84,-1.286 1.921,-2.199 0,0 -0.767,0 -0.767,0 -0.135,0.88 -0.595,1.364 -1.128,1.364 -1.091,0 -1.29,-1.221 -1.29,-2.212 0,-1.023 0.316,-2.168 1.299,-2.168 0.667,0 1.019,0.462 1.118,1.232 10e-4,0.002 0.768,0.002 0.768,0.002 z m 2.526,-1.133 v -0.802 h -0.758 v -1.606 h -0.793 v 1.606 h -0.64 v 0.802 h 0.64 c 0,0 0,3.796 0,3.796 0,0.693 0.171,1.231 0.955,1.231 0.081,0 0.307,-0.044 0.595,-0.077 0,0 0,-0.758 0,-0.758 0,0 -0.28,0 -0.28,0 -0.162,0 -0.478,0 -0.478,-0.451 0,0 0,-3.741 0,-3.741 z m 1.587,-0.802 h -0.793 v 5.752 h 0.793 z m 0,-1.046 v -1.099 h -0.793 v 1.099 z m 0.921,3.916 c 0,1.485 0.685,3.035 2.191,3.035 1.506,0 2.191,-1.55 2.191,-3.035 0,-1.485 -0.685,-3.035 -2.191,-3.035 -1.506,0 -2.191,1.55 -2.191,3.035 z m 0.82,0 c 0,-0.77 0.235,-2.201 1.372,-2.201 1.137,0 1.372,1.43 1.372,2.201 0,0.771 -0.235,2.201 -1.372,2.201 -1.137,0 -1.372,-1.43 -1.372,-2.201 z m 8.307,-1.034 c 0,-1.638 -0.919,-2.001 -1.65,-2.001 -0.812,0 -1.254,0.67 -1.426,0.978 0,0 -0.018,0 -0.018,0 v -0.813 h -0.748 v 5.752 h 0.793 c 0,0 0,-3.134 0,-3.134 0,-1.563 0.794,-1.915 1.245,-1.915 0.776,0 1.011,0.506 1.011,1.507 0,0 0,3.542 0,3.542 h 0.793 c 0,0 0,-3.916 0,-3.916 z m 4.619,-0.198 c 0,-0.286 -0.117,-1.803 -1.804,-1.803 -0.93,0 -1.785,0.571 -1.785,1.836 0,0.792 0.432,1.199 1.09,1.397 0,0 0.921,0.275 0.921,0.275 0.677,0.209 0.939,0.363 0.939,0.825 0,0.638 -0.514,0.913 -1.083,0.913 -1.119,0 -1.227,-0.726 -1.254,-1.177 0,0 -0.766,0 -0.766,0 0.027,0.693 0.162,2.012 2.029,2.012 1.065,0 1.867,-0.714 1.867,-1.902 0,-0.781 -0.342,-1.221 -1.325,-1.518 0,0 -0.794,-0.242 -0.794,-0.242 -0.614,-0.187 -0.857,-0.297 -0.857,-0.77 0,-0.715 0.695,-0.814 0.939,-0.814 1.002,0 1.11,0.605 1.119,0.968 -0.002,0 0.764,0 0.764,0 z m 5.348,-0.836 v -0.802 h -0.794 c 0,0 0,-0.716 0,-0.716 0,-0.462 0.126,-0.672 0.469,-0.672 0.099,0 0.226,0.011 0.325,0.022 0,0 0,-0.868 0,-0.868 -0.126,-0.011 -0.244,-0.022 -0.361,-0.022 -0.775,0 -1.226,0.395 -1.226,1.264 0,0 0,0.991 0,0.991 h -0.649 v 0.802 h 0.649 v 4.95 h 0.793 v -4.95 h 0.794 z m 1.633,1.606 c 0,-0.836 0.469,-1.54 1.209,-1.54 0,0 0.298,0 0.298,0 0,0 0,-1 0,-1 -0.063,-0.022 -0.108,-0.033 -0.207,-0.033 -0.595,0 -1.01,0.45 -1.326,1.121 0,0 -0.018,0 -0.018,0 v -0.956 h -0.748 v 5.752 h 0.793 c -0.001,0 -0.001,-3.344 -0.001,-3.344 z m 1.652,0.462 c 0,1.485 0.685,3.035 2.191,3.035 1.506,0 2.191,-1.55 2.191,-3.035 0,-1.485 -0.685,-3.035 -2.191,-3.035 -1.506,0 -2.191,1.55 -2.191,3.035 z m 0.82,0 c 0,-0.77 0.235,-2.201 1.372,-2.201 1.137,0 1.372,1.43 1.372,2.201 0,0.771 -0.235,2.201 -1.372,2.201 -1.137,0 -1.372,-1.43 -1.372,-2.201 z m 4.466,2.882 h 0.793 c 0,0 0,-3.135 0,-3.135 0,-1.562 0.794,-1.914 1.245,-1.914 0.587,0 0.74,0.583 0.74,1.067 0,0 0,3.982 0,3.982 h 0.793 c 0,0 0,-3.509 0,-3.509 0,-0.77 0.442,-1.54 1.11,-1.54 0.677,0 0.875,0.539 0.875,1.331 0,0 0,3.718 0,3.718 h 0.793 c 0,0 0,-3.982 0,-3.982 0,-1.616 -0.955,-1.935 -1.46,-1.935 -0.731,0 -1.047,0.395 -1.444,0.934 -0.135,-0.308 -0.405,-0.934 -1.253,-0.934 -0.848,0 -1.254,0.67 -1.426,0.978 0,0 -0.018,0 -0.018,0 v -0.813 h -0.748 z m 10.831,-7.897 H -8.41 v 7.897 h 0.793 v -7.897 z m 4.403,6.093 c -0.027,0.429 -0.469,1.134 -1.218,1.134 -0.911,0 -1.372,-0.693 -1.372,-1.893 0,0 3.446,0 3.446,0 0,-2.035 -0.667,-3.354 -2.029,-3.354 -1.561,0 -2.264,1.418 -2.264,3.2 0,1.662 0.784,2.882 2.11,2.882 0.758,0 1.065,-0.22 1.281,-0.395 0.595,-0.483 0.811,-1.298 0.838,-1.573 10e-4,-0.001 -0.792,-0.001 -0.792,-0.001 z m -2.59,-1.528 c 0,-0.892 0.578,-1.717 1.308,-1.717 0.966,0 1.272,0.826 1.317,1.717 0.001,0 -2.625,0 -2.625,0 z m 6.17,-1.618 v -0.802 h -0.794 c 0,0 0,-0.716 0,-0.716 0,-0.462 0.126,-0.672 0.469,-0.672 0.099,0 0.225,0.011 0.325,0.022 0,0 0,-0.868 0,-0.868 -0.126,-0.011 -0.244,-0.022 -0.361,-0.022 -0.775,0 -1.226,0.395 -1.226,1.264 0,0 0,0.991 0,0.991 h -0.649 v 0.802 h 0.649 v 4.95 h 0.793 v -4.95 h 0.794 z m 2.102,0 v -0.802 H 1.709 v -1.606 H 0.916 v 1.606 h -0.64 v 0.802 h 0.64 c 0,0 0,3.796 0,3.796 0,0.693 0.171,1.231 0.955,1.231 0.081,0 0.307,-0.044 0.595,-0.077 0,0 0,-0.758 0,-0.758 0,0 -0.28,0 -0.28,0 -0.162,0 -0.478,0 -0.478,-0.451 0,0 0,-3.741 0,-3.741 z m 5.015,0 v -0.802 H 6.724 v -1.606 H 5.931 v 1.606 h -0.64 v 0.802 h 0.64 c 0,0 0,3.796 0,3.796 0,0.693 0.171,1.231 0.955,1.231 0.081,0 0.307,-0.044 0.595,-0.077 0,0 0,-0.758 0,-0.758 0,0 -0.28,0 -0.28,0 -0.162,0 -0.478,0 -0.478,-0.451 0,0 0,-3.741 0,-3.741 z m 0.326,2.068 c 0,1.485 0.685,3.035 2.191,3.035 1.507,0 2.191,-1.55 2.191,-3.035 0,-1.485 -0.685,-3.035 -2.191,-3.035 -1.507,0 -2.191,1.55 -2.191,3.035 z m 0.819,0 c 0,-0.77 0.235,-2.201 1.372,-2.201 1.137,0 1.372,1.43 1.372,2.201 0,0.771 -0.235,2.201 -1.372,2.201 -1.137,0 -1.372,-1.43 -1.372,-2.201 z m 7.875,-0.462 c 0,-0.836 0.469,-1.54 1.209,-1.54 0,0 0.298,0 0.298,0 0,0 0,-1 0,-1 -0.063,-0.022 -0.108,-0.033 -0.207,-0.033 -0.595,0 -1.01,0.45 -1.326,1.121 0,0 -0.018,0 -0.018,0 v -0.956 H 15.71 v 5.752 h 0.793 c -0.001,0 -0.001,-3.344 -0.001,-3.344 z m 3.048,-2.408 h -0.793 v 5.752 h 0.793 z m 0,-1.046 v -1.099 h -0.793 v 1.099 z m 1.786,3.905 c 0,-0.737 0.063,-2.157 1.29,-2.157 1.146,0 1.272,1.507 1.272,2.443 0,1.529 -0.785,1.937 -1.29,1.937 -0.866,0 -1.272,-0.957 -1.272,-2.223 z m 3.32,-2.859 h -0.748 v 0.813 c 0,0 -0.018,0 -0.018,0 -0.189,-0.33 -0.55,-0.978 -1.408,-0.978 -1.254,0 -1.966,1.253 -1.966,2.87 0,1.375 0.468,3.211 2.074,3.211 0.632,0 1.047,-0.362 1.254,-0.769 0,0 0,-0.044 0,-0.044 h 0.018 c 0,0 0,0.242 0,0.242 0,0.681 0.027,2.024 -1.345,2.024 -0.19,0 -0.92,0 -1.065,-0.914 0,0 -0.793,0 -0.793,0 0.153,1.529 1.244,1.715 1.804,1.715 2.182,0 2.191,-2.068 2.191,-2.892 0.002,0.002 0.002,-5.278 0.002,-5.278 z m 4.943,1.836 c 0,-1.638 -0.919,-2.001 -1.65,-2.001 -0.758,0 -1.155,0.571 -1.381,0.934 0,0 -0.018,0 -0.018,0 v -2.914 h -0.793 v 7.897 h 0.793 c 0,0 0,-3.135 0,-3.135 0,-1.452 0.668,-1.914 1.318,-1.914 0.758,0 0.939,0.506 0.939,1.287 0,0 0,3.762 0,3.762 H 29.6 c -0.001,0 -0.001,-3.916 -0.001,-3.916 z m 2.904,-1.034 v -0.802 h -0.758 v -1.606 h -0.793 v 1.606 h -0.64 v 0.802 h 0.64 c 0,0 0,3.796 0,3.796 0,0.693 0.171,1.231 0.955,1.231 0.081,0 0.307,-0.044 0.595,-0.077 0,0 0,-0.758 0,-0.758 0,0 -0.28,0 -0.28,0 -0.162,0 -0.478,0 -0.478,-0.451 0,0 0,-3.741 0,-3.741 z m 0.975,4.95 c 0,0 0.477,0 0.477,0 0,0.517 -0.099,1.067 -0.477,1.111 0,0 0,0.506 0,0.506 0.18,-0.033 0.937,-0.209 0.937,-1.705 0,0 0,-1.077 0,-1.077 h -0.937 z m 8.262,-4.114 c 0,-0.286 -0.117,-1.803 -1.804,-1.803 -0.93,0 -1.785,0.571 -1.785,1.836 0,0.792 0.432,1.199 1.09,1.397 0,0 0.921,0.275 0.921,0.275 0.677,0.209 0.939,0.363 0.939,0.825 0,0.638 -0.514,0.913 -1.083,0.913 -1.119,0 -1.227,-0.726 -1.254,-1.177 0,0 -0.766,0 -0.766,0 0.027,0.693 0.162,2.012 2.029,2.012 1.065,0 1.867,-0.714 1.867,-1.902 0,-0.781 -0.342,-1.221 -1.325,-1.518 0,0 -0.794,-0.242 -0.794,-0.242 -0.614,-0.187 -0.857,-0.297 -0.857,-0.77 0,-0.715 0.695,-0.814 0.939,-0.814 1.002,0 1.11,0.605 1.119,0.968 -0.002,0 0.764,0 0.764,0 z m 2.796,-0.836 v -0.802 h -0.758 v -1.606 h -0.793 v 1.606 h -0.64 v 0.802 h 0.64 c 0,0 0,3.796 0,3.796 0,0.693 0.171,1.231 0.955,1.231 0.081,0 0.307,-0.044 0.595,-0.077 0,0 0,-0.758 0,-0.758 0,0 -0.28,0 -0.28,0 -0.162,0 -0.478,0 -0.478,-0.451 0,0 0,-3.741 0,-3.741 z m 1.389,0.946 c 0.054,-0.44 0.18,-1.111 1.083,-1.111 0.749,0 1.11,0.33 1.11,0.935 0,0.572 -0.226,0.66 -0.415,0.682 0,0 -1.309,0.198 -1.309,0.198 -1.316,0.198 -1.433,1.32 -1.433,1.805 0,0.99 0.613,1.66 1.478,1.66 0.92,0 1.399,-0.527 1.706,-0.934 0.027,0.439 0.135,0.879 0.838,0.879 0.18,0 0.298,-0.066 0.433,-0.11 0,0 0,-0.703 0,-0.703 -0.09,0.022 -0.189,0.044 -0.262,0.044 -0.162,0 -0.262,-0.099 -0.262,-0.341 0,0 0,-3.312 0,-3.312 0,-1.473 -1.37,-1.605 -1.749,-1.605 -1.164,0 -1.912,0.538 -1.948,1.913 0,0 0.73,0 0.73,0 z m 2.175,2.014 c 0,0.77 -0.722,1.353 -1.462,1.353 -0.596,0 -0.857,-0.374 -0.857,-1.001 0,-0.726 0.623,-0.869 1.011,-0.935 0.984,-0.154 1.182,-0.242 1.309,-0.363 -10e-4,-10e-4 -10e-4,0.946 -10e-4,0.946 z m 3.038,-1.354 c 0,-0.836 0.469,-1.54 1.209,-1.54 0,0 0.298,0 0.298,0 0,0 0,-1 0,-1 -0.063,-0.022 -0.108,-0.033 -0.207,-0.033 -0.595,0 -1.01,0.45 -1.326,1.121 0,0 -0.018,0 -0.018,0 v -0.956 h -0.748 v 5.752 h 0.793 c -0.001,0 -0.001,-3.344 -0.001,-3.344 z m 4.194,-1.606 v -0.802 h -0.758 v -1.606 h -0.793 v 1.606 h -0.64 v 0.802 h 0.64 c 0,0 0,3.796 0,3.796 0,0.693 0.171,1.231 0.955,1.231 0.081,0 0.307,-0.044 0.595,-0.077 0,0 0,-0.758 0,-0.758 0,0 -0.28,0 -0.28,0 -0.162,0 -0.478,0 -0.478,-0.451 0,0 0,-3.741 0,-3.741 z m 1.588,-0.802 h -0.793 v 5.752 h 0.793 z m 0,-1.046 v -1.099 h -0.793 v 1.099 z m 5.033,2.882 c 0,-1.638 -0.919,-2.001 -1.65,-2.001 -0.812,0 -1.254,0.67 -1.426,0.978 0,0 -0.018,0 -0.018,0 v -0.813 h -0.748 v 5.752 h 0.793 c 0,0 0,-3.134 0,-3.134 0,-1.563 0.794,-1.915 1.245,-1.915 0.776,0 1.011,0.506 1.011,1.507 0,0 0,3.542 0,3.542 h 0.793 c 0,0 0,-3.916 0,-3.916 z m 1.768,1.023 c 0,-0.737 0.063,-2.157 1.29,-2.157 1.146,0 1.272,1.507 1.272,2.443 0,1.529 -0.785,1.937 -1.29,1.937 -0.866,0 -1.272,-0.957 -1.272,-2.223 z m 3.319,-2.859 h -0.748 v 0.813 c 0,0 -0.018,0 -0.018,0 -0.189,-0.33 -0.55,-0.978 -1.408,-0.978 -1.254,0 -1.966,1.253 -1.966,2.87 0,1.375 0.468,3.211 2.074,3.211 0.632,0 1.047,-0.362 1.254,-0.769 0,0 0,-0.044 0,-0.044 h 0.018 c 0,0 0,0.242 0,0.242 0,0.681 0.027,2.024 -1.345,2.024 -0.19,0 -0.92,0 -1.065,-0.914 0,0 -0.793,0 -0.793,0 0.153,1.529 1.244,1.715 1.804,1.715 2.182,0 2.191,-2.068 2.191,-2.892 0.002,0.002 0.002,-5.278 0.002,-5.278 z m 6.252,1.297 h 0.018 l 0.956,4.455 h 0.821 l 1.371,-5.752 h -0.794 l -0.956,4.521 H 74.69 l -0.92,-4.521 h -0.884 l -0.911,4.521 h -0.018 l -0.902,-4.521 h -0.866 l 1.362,5.752 h 0.821 z m 4.68,-1.297 H 77.18 v 5.752 h 0.793 v -5.752 z m 0,-1.046 v -1.099 H 77.18 v 1.099 z m 2.923,1.848 v -0.802 h -0.758 v -1.606 h -0.793 v 1.606 h -0.64 v 0.802 h 0.64 c 0,0 0,3.796 0,3.796 0,0.693 0.171,1.231 0.955,1.231 0.081,0 0.307,-0.044 0.595,-0.077 0,0 0,-0.758 0,-0.758 0,0 -0.28,0 -0.28,0 -0.162,0 -0.478,0 -0.478,-0.451 0,0 0,-3.741 0,-3.741 z m 4.618,1.034 c 0,-1.638 -0.919,-2.001 -1.65,-2.001 -0.758,0 -1.155,0.571 -1.381,0.934 0,0 -0.018,0 -0.018,0 v -2.914 h -0.793 v 7.897 h 0.793 c 0,0 0,-3.135 0,-3.135 0,-1.452 0.668,-1.914 1.318,-1.914 0.758,0 0.939,0.506 0.939,1.287 0,0 0,3.762 0,3.762 h 0.793 c -10e-4,0 -10e-4,-3.916 -10e-4,-3.916 z m 5.412,-1.034 v -0.802 h -0.758 v -1.606 h -0.793 v 1.606 h -0.64 v 0.802 h 0.64 c 0,0 0,3.796 0,3.796 0,0.693 0.171,1.231 0.955,1.231 0.081,0 0.307,-0.044 0.595,-0.077 0,0 0,-0.758 0,-0.758 0,0 -0.28,0 -0.28,0 -0.162,0 -0.478,0 -0.478,-0.451 0,0 0,-3.741 0,-3.741 z m 4.618,1.034 c 0,-1.638 -0.919,-2.001 -1.65,-2.001 -0.758,0 -1.155,0.571 -1.381,0.934 0,0 -0.018,0 -0.018,0 v -2.914 h -0.793 v 7.897 h 0.793 c 0,0 0,-3.135 0,-3.135 0,-1.452 0.668,-1.914 1.318,-1.914 0.758,0 0.939,0.506 0.939,1.287 0,0 0,3.762 0,3.762 h 0.793 c -10e-4,0 -10e-4,-3.916 -10e-4,-3.916 z m 4.385,2.112 c -0.027,0.429 -0.469,1.134 -1.218,1.134 -0.911,0 -1.372,-0.693 -1.372,-1.893 0,0 3.446,0 3.446,0 0,-2.035 -0.667,-3.354 -2.029,-3.354 -1.561,0 -2.264,1.418 -2.264,3.2 0,1.662 0.784,2.882 2.11,2.882 0.758,0 1.065,-0.22 1.281,-0.395 0.595,-0.483 0.811,-1.298 0.838,-1.573 0.001,-0.001 -0.792,-0.001 -0.792,-0.001 z m -2.59,-1.528 c 0,-0.892 0.578,-1.717 1.308,-1.717 0.966,0 1.272,0.826 1.317,1.717 0.001,0 -2.625,0 -2.625,0 z m 10.743,-0.584 c 0,-1.638 -0.919,-2.001 -1.65,-2.001 -0.812,0 -1.254,0.67 -1.426,0.978 0,0 -0.018,0 -0.018,0 v -0.813 h -0.748 v 5.752 h 0.793 c 0,0 0,-3.134 0,-3.134 0,-1.563 0.794,-1.915 1.245,-1.915 0.776,0 1.011,0.506 1.011,1.507 0,0 0,3.542 0,3.542 h 0.793 c 0,0 0,-3.916 0,-3.916 z m 4.907,3.916 v -5.752 h -0.793 c 0,0 0,3.168 0,3.168 0,0.836 -0.298,1.914 -1.3,1.914 -0.514,0 -0.911,-0.319 -0.911,-1.265 0,0 0,-3.817 0,-3.817 h -0.793 c 0,0 0,4.136 0,4.136 0,1.374 0.838,1.781 1.533,1.781 0.758,0 1.164,-0.351 1.498,-1.022 0,0 0.018,0.022 0.018,0.022 v 0.835 z m 1.192,0 h 0.793 c 0,0 0,-3.135 0,-3.135 0,-1.562 0.794,-1.914 1.245,-1.914 0.587,0 0.74,0.583 0.74,1.067 0,0 0,3.982 0,3.982 h 0.793 c 0,0 0,-3.509 0,-3.509 0,-0.77 0.442,-1.54 1.11,-1.54 0.677,0 0.875,0.539 0.875,1.331 0,0 0,3.718 0,3.718 h 0.793 c 0,0 0,-3.982 0,-3.982 0,-1.616 -0.955,-1.935 -1.46,-1.935 -0.731,0 -1.047,0.395 -1.444,0.934 -0.135,-0.308 -0.405,-0.934 -1.253,-0.934 -0.848,0 -1.254,0.67 -1.426,0.978 0,0 -0.018,0 -0.018,0 v -0.813 h -0.748 z m 8.198,0 v -0.714 c 0,0 0.018,0 0.018,0 0.162,0.319 0.496,0.879 1.299,0.879 1.606,0 2.074,-1.836 2.074,-3.211 0,-1.618 -0.712,-2.87 -1.966,-2.87 -0.55,0.011 -1.02,0.286 -1.363,0.89 0,0 -0.018,0 -0.018,0 v -2.87 h -0.793 v 7.897 h 0.749 z m 2.571,-2.893 c 0,1.266 -0.406,2.223 -1.272,2.223 -0.505,0 -1.29,-0.407 -1.29,-1.937 0,-0.935 0.126,-2.443 1.272,-2.443 1.227,10e-4 1.29,1.42 1.29,2.157 z m 4.97,1.089 c -0.027,0.429 -0.469,1.134 -1.218,1.134 -0.911,0 -1.372,-0.693 -1.372,-1.893 0,0 3.446,0 3.446,0 0,-2.035 -0.667,-3.354 -2.029,-3.354 -1.561,0 -2.263,1.418 -2.263,3.2 0,1.662 0.784,2.882 2.11,2.882 0.758,0 1.065,-0.22 1.281,-0.395 0.595,-0.483 0.811,-1.298 0.838,-1.573 0,-0.001 -0.793,-0.001 -0.793,-0.001 z m -2.589,-1.528 c 0,-0.892 0.578,-1.717 1.308,-1.717 0.966,0 1.272,0.826 1.318,1.717 -10e-4,0 -2.626,0 -2.626,0 z m 5.294,-0.012 c 0,-0.836 0.469,-1.54 1.209,-1.54 0,0 0.298,0 0.298,0 0,0 0,-1 0,-1 -0.063,-0.022 -0.108,-0.033 -0.207,-0.033 -0.595,0 -1.01,0.45 -1.326,1.121 0,0 -0.018,0 -0.018,0 v -0.956 h -0.748 v 5.752 h 0.793 c -0.001,0 -0.001,-3.344 -0.001,-3.344 z m 5.205,0.451 c 0,-0.737 0.063,-2.157 1.29,-2.157 1.146,0 1.272,1.507 1.272,2.443 0,1.529 -0.785,1.937 -1.29,1.937 -0.866,0 -1.272,-0.957 -1.272,-2.223 z m 3.319,-2.859 H 140.4 v 0.813 c 0,0 -0.018,0 -0.018,0 -0.189,-0.33 -0.55,-0.978 -1.408,-0.978 -1.254,0 -1.966,1.253 -1.966,2.87 0,1.375 0.468,3.211 2.074,3.211 0.632,0 1.047,-0.362 1.254,-0.769 0,0 0,-0.044 0,-0.044 h 0.018 c 0,0 0,0.242 0,0.242 0,0.681 0.027,2.024 -1.345,2.024 -0.189,0 -0.92,0 -1.065,-0.914 0,0 -0.793,0 -0.793,0 0.153,1.529 1.244,1.715 1.804,1.715 2.182,0 2.191,-2.068 2.191,-2.892 0.002,0.002 0.002,-5.278 0.002,-5.278 z m 1.912,0 h -0.793 v 5.752 h 0.793 z m 0,-1.046 v -1.099 h -0.793 v 1.099 z m 2.842,5.732 h -0.018 l -1.226,-4.686 h -0.92 l 1.722,5.752 h 0.848 l 1.795,-5.752 h -0.866 z m 5.846,-0.738 c -0.027,0.429 -0.469,1.134 -1.218,1.134 -0.911,0 -1.372,-0.693 -1.372,-1.893 0,0 3.446,0 3.446,0 0,-2.035 -0.667,-3.354 -2.029,-3.354 -1.561,0 -2.263,1.418 -2.263,3.2 0,1.662 0.784,2.882 2.11,2.882 0.758,0 1.065,-0.22 1.281,-0.395 0.595,-0.483 0.811,-1.298 0.838,-1.573 -0.001,-0.001 -0.793,-0.001 -0.793,-0.001 z m -2.59,-1.528 c 0,-0.892 0.578,-1.717 1.308,-1.717 0.966,0 1.272,0.826 1.318,1.717 0,0 -2.626,0 -2.626,0 z m 8.235,-0.584 c 0,-1.638 -0.919,-2.001 -1.65,-2.001 -0.812,0 -1.254,0.67 -1.426,0.978 0,0 -0.018,0 -0.018,0 v -0.813 h -0.748 v 5.752 h 0.793 c 0,0 0,-3.134 0,-3.134 0,-1.563 0.794,-1.915 1.245,-1.915 0.776,0 1.011,0.506 1.011,1.507 0,0 0,3.542 0,3.542 h 0.793 c 0,0 0,-3.916 0,-3.916 z m 5.412,-1.034 v -0.802 h -0.758 v -1.606 h -0.793 v 1.606 h -0.64 v 0.802 h 0.64 c 0,0 0,3.796 0,3.796 0,0.693 0.171,1.231 0.955,1.231 0.081,0 0.307,-0.044 0.595,-0.077 0,0 0,-0.758 0,-0.758 0,0 -0.28,0 -0.28,0 -0.162,0 -0.478,0 -0.478,-0.451 0,0 0,-3.741 0,-3.741 z m 0.326,2.068 c 0,1.485 0.685,3.035 2.191,3.035 1.506,0 2.191,-1.55 2.191,-3.035 0,-1.485 -0.685,-3.035 -2.191,-3.035 -1.506,0 -2.191,1.55 -2.191,3.035 z m 0.82,0 c 0,-0.77 0.235,-2.201 1.372,-2.201 1.137,0 1.372,1.43 1.372,2.201 0,0.771 -0.235,2.201 -1.372,2.201 -1.137,0 -1.372,-1.43 -1.372,-2.201 z m 7.874,-0.462 c 0,-0.836 0.469,-1.54 1.209,-1.54 0,0 0.298,0 0.298,0 0,0 0,-1 0,-1 -0.063,-0.022 -0.108,-0.033 -0.207,-0.033 -0.595,0 -1.01,0.45 -1.326,1.121 0,0 -0.018,0 -0.018,0 v -0.956 h -0.748 v 5.752 h 0.793 c -0.001,0 -0.001,-3.344 -0.001,-3.344 z m 5.134,1.54 c -0.027,0.429 -0.469,1.134 -1.218,1.134 -0.911,0 -1.372,-0.693 -1.372,-1.893 0,0 3.446,0 3.446,0 0,-2.035 -0.667,-3.354 -2.029,-3.354 -1.561,0 -2.263,1.418 -2.263,3.2 0,1.662 0.784,2.882 2.11,2.882 0.758,0 1.065,-0.22 1.281,-0.395 0.595,-0.483 0.811,-1.298 0.838,-1.573 -0.001,-0.001 -0.793,-0.001 -0.793,-0.001 z m -2.59,-1.528 c 0,-0.892 0.578,-1.717 1.308,-1.717 0.966,0 1.272,0.826 1.318,1.717 0,0 -2.626,0 -2.626,0 z m 5.096,-0.672 c 0.054,-0.44 0.18,-1.111 1.083,-1.111 0.749,0 1.11,0.33 1.11,0.935 0,0.572 -0.226,0.66 -0.415,0.682 0,0 -1.309,0.198 -1.309,0.198 -1.316,0.198 -1.433,1.32 -1.433,1.805 0,0.99 0.613,1.66 1.478,1.66 0.92,0 1.399,-0.527 1.706,-0.934 0.027,0.439 0.135,0.879 0.838,0.879 0.18,0 0.298,-0.066 0.433,-0.11 0,0 0,-0.703 0,-0.703 -0.09,0.022 -0.189,0.044 -0.262,0.044 -0.162,0 -0.262,-0.099 -0.262,-0.341 0,0 0,-3.312 0,-3.312 0,-1.473 -1.37,-1.605 -1.749,-1.605 -1.164,0 -1.912,0.538 -1.948,1.913 0,0 0.73,0 0.73,0 z m 2.175,2.014 c 0,0.77 -0.722,1.353 -1.462,1.353 -0.596,0 -0.857,-0.374 -0.857,-1.001 0,-0.726 0.623,-0.869 1.011,-0.935 0.984,-0.154 1.182,-0.242 1.309,-0.363 -0.001,-10e-4 -0.001,0.946 -0.001,0.946 z m 5.853,-1.827 c -0.063,-1.001 -0.532,-2.1 -1.768,-2.1 -1.56,0 -2.263,1.418 -2.263,3.2 0,1.662 0.784,2.881 2.11,2.881 1.38,0 1.84,-1.286 1.921,-2.199 0,0 -0.767,0 -0.767,0 -0.135,0.88 -0.595,1.364 -1.128,1.364 -1.091,0 -1.29,-1.221 -1.29,-2.212 0,-1.023 0.316,-2.168 1.299,-2.168 0.667,0 1.019,0.462 1.118,1.232 0.001,0.002 0.768,0.002 0.768,0.002 z m 4.636,-0.099 c 0,-1.638 -0.919,-2.001 -1.65,-2.001 -0.758,0 -1.155,0.571 -1.381,0.934 0,0 -0.018,0 -0.018,0 v -2.914 h -0.793 v 7.897 h 0.793 c 0,0 0,-3.135 0,-3.135 0,-1.452 0.668,-1.914 1.318,-1.914 0.758,0 0.939,0.506 0.939,1.287 0,0 0,3.762 0,3.762 h 0.793 c -0.001,0 -0.001,-3.916 -0.001,-3.916 z m 4.384,-0.088 c 0.054,-0.44 0.18,-1.111 1.083,-1.111 0.749,0 1.11,0.33 1.11,0.935 0,0.572 -0.226,0.66 -0.415,0.682 0,0 -1.309,0.198 -1.309,0.198 -1.316,0.198 -1.433,1.32 -1.433,1.805 0,0.99 0.613,1.66 1.478,1.66 0.92,0 1.399,-0.527 1.706,-0.934 0.027,0.439 0.135,0.879 0.838,0.879 0.18,0 0.298,-0.066 0.433,-0.11 0,0 0,-0.703 0,-0.703 -0.09,0.022 -0.189,0.044 -0.262,0.044 -0.162,0 -0.262,-0.099 -0.262,-0.341 0,0 0,-3.312 0,-3.312 0,-1.473 -1.37,-1.605 -1.749,-1.605 -1.164,0 -1.912,0.538 -1.948,1.913 0,0 0.73,0 0.73,0 z m 2.175,2.014 c 0,0.77 -0.722,1.353 -1.462,1.353 -0.596,0 -0.857,-0.374 -0.857,-1.001 0,-0.726 0.623,-0.869 1.011,-0.935 0.984,-0.154 1.182,-0.242 1.309,-0.363 -0.001,-10e-4 -0.001,0.946 -0.001,0.946 z m 5.979,-1.926 c 0,-1.638 -0.919,-2.001 -1.65,-2.001 -0.812,0 -1.254,0.67 -1.426,0.978 0,0 -0.018,0 -0.018,0 v -0.813 h -0.748 v 5.752 h 0.793 c 0,0 0,-3.134 0,-3.134 0,-1.563 0.794,-1.915 1.245,-1.915 0.776,0 1.011,0.506 1.011,1.507 0,0 0,3.542 0,3.542 h 0.793 c 0,0 0,-3.916 0,-3.916 z m 4.384,-0.088 c 0.054,-0.44 0.18,-1.111 1.083,-1.111 0.749,0 1.11,0.33 1.11,0.935 0,0.572 -0.226,0.66 -0.415,0.682 0,0 -1.309,0.198 -1.309,0.198 -1.316,0.198 -1.433,1.32 -1.433,1.805 0,0.99 0.613,1.66 1.478,1.66 0.92,0 1.399,-0.527 1.706,-0.934 0.027,0.439 0.135,0.879 0.838,0.879 0.18,0 0.298,-0.066 0.433,-0.11 0,0 0,-0.703 0,-0.703 -0.09,0.022 -0.189,0.044 -0.262,0.044 -0.162,0 -0.262,-0.099 -0.262,-0.341 0,0 0,-3.312 0,-3.312 0,-1.473 -1.37,-1.605 -1.749,-1.605 -1.164,0 -1.912,0.538 -1.948,1.913 0,0 0.73,0 0.73,0 z m 2.174,2.014 c 0,0.77 -0.722,1.353 -1.462,1.353 -0.596,0 -0.857,-0.374 -0.857,-1.001 0,-0.726 0.623,-0.869 1.011,-0.935 0.984,-0.154 1.182,-0.242 1.309,-0.363 -0.001,-10e-4 -0.001,0.946 -0.001,0.946 z m 5.98,-1.926 c 0,-1.638 -0.919,-2.001 -1.65,-2.001 -0.812,0 -1.254,0.67 -1.426,0.978 0,0 -0.018,0 -0.018,0 v -0.813 h -0.748 v 5.752 h 0.793 c 0,0 0,-3.134 0,-3.134 0,-1.563 0.794,-1.915 1.245,-1.915 0.776,0 1.011,0.506 1.011,1.507 0,0 0,3.542 0,3.542 h 0.793 c 0,0 0,-3.916 0,-3.916 z m 4.618,-0.198 c 0,-0.286 -0.117,-1.803 -1.804,-1.803 -0.93,0 -1.785,0.571 -1.785,1.836 0,0.792 0.432,1.199 1.09,1.397 0,0 0.921,0.275 0.921,0.275 0.677,0.209 0.939,0.363 0.939,0.825 0,0.638 -0.514,0.913 -1.083,0.913 -1.119,0 -1.227,-0.726 -1.254,-1.177 0,0 -0.766,0 -0.766,0 0.027,0.693 0.162,2.012 2.029,2.012 1.065,0 1.867,-0.714 1.867,-1.902 0,-0.781 -0.342,-1.221 -1.325,-1.518 0,0 -0.794,-0.242 -0.794,-0.242 -0.614,-0.187 -0.857,-0.297 -0.857,-0.77 0,-0.715 0.695,-0.814 0.939,-0.814 1.002,0 1.11,0.605 1.119,0.968 -0.002,0 0.764,0 0.764,0 z m 3.437,-0.341 h 0.018 l 0.956,4.455 h 0.821 l 1.371,-5.752 h -0.794 l -0.956,4.521 h -0.018 l -0.92,-4.521 h -0.884 l -0.911,4.521 h -0.018 l -0.902,-4.521 h -0.866 l 1.362,5.752 h 0.821 z m 6.991,2.651 c -0.027,0.429 -0.469,1.134 -1.218,1.134 -0.911,0 -1.372,-0.693 -1.372,-1.893 0,0 3.446,0 3.446,0 0,-2.035 -0.667,-3.354 -2.029,-3.354 -1.561,0 -2.263,1.418 -2.263,3.2 0,1.662 0.784,2.882 2.11,2.882 0.758,0 1.065,-0.22 1.281,-0.395 0.595,-0.483 0.811,-1.298 0.838,-1.573 0,-0.001 -0.793,-0.001 -0.793,-0.001 z m -2.59,-1.528 c 0,-0.892 0.578,-1.717 1.308,-1.717 0.966,0 1.272,0.826 1.318,1.717 0,0 -2.626,0 -2.626,0 z m 5.295,-0.012 c 0,-0.836 0.469,-1.54 1.209,-1.54 0,0 0.298,0 0.298,0 0,0 0,-1 0,-1 -0.063,-0.022 -0.108,-0.033 -0.207,-0.033 -0.595,0 -1.01,0.45 -1.326,1.121 0,0 -0.018,0 -0.018,0 v -0.956 h -0.748 v 5.752 h 0.793 c -0.001,0 -0.001,-3.344 -0.001,-3.344 z m 5.313,-0.66 c 0.054,-0.44 0.18,-1.111 1.083,-1.111 0.749,0 1.11,0.33 1.11,0.935 0,0.572 -0.226,0.66 -0.415,0.682 0,0 -1.309,0.198 -1.309,0.198 -1.316,0.198 -1.433,1.32 -1.433,1.805 0,0.99 0.613,1.66 1.478,1.66 0.92,0 1.399,-0.527 1.706,-0.934 0.027,0.439 0.135,0.879 0.838,0.879 0.18,0 0.298,-0.066 0.433,-0.11 0,0 0,-0.703 0,-0.703 -0.09,0.022 -0.189,0.044 -0.262,0.044 -0.162,0 -0.262,-0.099 -0.262,-0.341 0,0 0,-3.312 0,-3.312 0,-1.473 -1.37,-1.605 -1.749,-1.605 -1.164,0 -1.912,0.538 -1.948,1.913 0,0 0.73,0 0.73,0 z m 2.174,2.014 c 0,0.77 -0.722,1.353 -1.462,1.353 -0.596,0 -0.857,-0.374 -0.857,-1.001 0,-0.726 0.623,-0.869 1.011,-0.935 0.984,-0.154 1.182,-0.242 1.309,-0.363 -10e-4,-10e-4 -10e-4,0.946 -10e-4,0.946 z m 3.869,-2.96 v -0.802 h -0.758 v -1.606 h -0.793 v 1.606 h -0.64 v 0.802 h 0.64 c 0,0 0,3.796 0,3.796 0,0.693 0.171,1.231 0.955,1.231 0.081,0 0.307,-0.044 0.595,-0.077 0,0 0,-0.758 0,-0.758 0,0 -0.28,0 -0.28,0 -0.162,0 -0.478,0 -0.478,-0.451 0,0 0,-3.741 0,-3.741 z m 5.015,0 v -0.802 h -0.758 v -1.606 h -0.793 v 1.606 h -0.64 v 0.802 h 0.64 c 0,0 0,3.796 0,3.796 0,0.693 0.171,1.231 0.955,1.231 0.081,0 0.307,-0.044 0.595,-0.077 0,0 0,-0.758 0,-0.758 0,0 -0.28,0 -0.28,0 -0.162,0 -0.478,0 -0.478,-0.451 0,0 0,-3.741 0,-3.741 z m 4.618,1.034 c 0,-1.638 -0.919,-2.001 -1.65,-2.001 -0.758,0 -1.155,0.571 -1.381,0.934 0,0 -0.018,0 -0.018,0 v -2.914 h -0.793 v 7.897 h 0.793 c 0,0 0,-3.135 0,-3.135 0,-1.452 0.668,-1.914 1.318,-1.914 0.758,0 0.939,0.506 0.939,1.287 0,0 0,3.762 0,3.762 h 0.793 c -0.001,0 -0.001,-3.916 -0.001,-3.916 z m 4.385,2.112 c -0.027,0.429 -0.469,1.134 -1.218,1.134 -0.911,0 -1.372,-0.693 -1.372,-1.893 0,0 3.446,0 3.446,0 0,-2.035 -0.667,-3.354 -2.029,-3.354 -1.561,0 -2.263,1.418 -2.263,3.2 0,1.662 0.784,2.882 2.11,2.882 0.758,0 1.065,-0.22 1.281,-0.395 0.595,-0.483 0.811,-1.298 0.838,-1.573 0,-0.001 -0.793,-0.001 -0.793,-0.001 z m -2.59,-1.528 c 0,-0.892 0.578,-1.717 1.308,-1.717 0.966,0 1.272,0.826 1.318,1.717 0,0 -2.626,0 -2.626,0 z m 10.113,1.528 c -0.027,0.429 -0.469,1.134 -1.218,1.134 -0.911,0 -1.372,-0.693 -1.372,-1.893 0,0 3.446,0 3.446,0 0,-2.035 -0.667,-3.354 -2.029,-3.354 -1.561,0 -2.263,1.418 -2.263,3.2 0,1.662 0.784,2.882 2.11,2.882 0.758,0 1.065,-0.22 1.281,-0.395 0.595,-0.483 0.811,-1.298 0.838,-1.573 -0.001,-0.001 -0.793,-0.001 -0.793,-0.001 z m -2.59,-1.528 c 0,-0.892 0.578,-1.717 1.308,-1.717 0.966,0 1.272,0.826 1.318,1.717 0,0 -2.626,0 -2.626,0 z m 8.235,-0.584 c 0,-1.638 -0.919,-2.001 -1.65,-2.001 -0.812,0 -1.254,0.67 -1.426,0.978 0,0 -0.018,0 -0.018,0 v -0.813 h -0.748 v 5.752 h 0.793 c 0,0 0,-3.134 0,-3.134 0,-1.563 0.794,-1.915 1.245,-1.915 0.776,0 1.011,0.506 1.011,1.507 0,0 0,3.542 0,3.542 h 0.793 c 0,0 0,-3.916 0,-3.916 z m 5.087,-3.981 h -0.793 v 2.881 c 0,0 -0.018,0.077 -0.018,0.077 -0.19,-0.33 -0.55,-0.978 -1.408,-0.978 -1.254,0 -1.966,1.253 -1.966,2.87 0,1.375 0.468,3.211 2.074,3.211 0.46,0 1.002,-0.176 1.345,-0.956 0,0 0.018,0 0.018,0 v 0.791 h 0.748 z m -3.364,5.004 c 0,-0.737 0.063,-2.157 1.29,-2.157 1.146,0 1.272,1.507 1.272,2.443 0,1.529 -0.785,1.937 -1.29,1.937 -0.866,0 -1.272,-0.957 -1.272,-2.223 z m 5.601,1.728 h -0.937 v 1.165 h 0.937 z"
   id="path9" />
	</g>
	<g
   transform="rotate(90,69.41925,174.26575)"
   id="g15">
		<path
   stroke="#000000"
   d="M -41.453,-240.539 V 220.036 H 17.075 V -240.539 Z"
   id="path13" />
	</g>
	<g
   transform="rotate(90,76.063,181.0866)"
   id="g19">
		<path
   stroke="#000000"
   d="m -41.453,-285.894 v 38.685 h 58.291 v -38.685 z"
   id="path17" />
	</g>
	<g
   transform="rotate(-90,375.88415,-341.06465)"
   id="g23">
		<path
   fill="#000000"
   d="m -81.709,-221.066 h -1.877 l 0.92,-3.612 z m -2.784,3.428 0.34,-1.33 h 2.961 l 0.353,1.33 h 2.961 l -3.25,-10.078 h -3.023 l -3.25,10.078 z m 10.106,-10.078 h -2.783 v 10.078 h 2.846 v -3.191 l -0.113,-2.296 3.24,5.487 h 2.783 v -10.078 h -2.846 v 3.205 l 0.113,2.296 z m 14.97,2.924 c -0.214,-1.763 -1.36,-3.19 -3.88,-3.19 -2.268,0 -3.93,1.077 -3.93,3.218 0,3.851 5.216,2.801 5.216,4.328 0,0.476 -0.492,0.742 -1.236,0.742 -0.29,0 -0.605,-0.084 -0.845,-0.252 -0.252,-0.168 -0.429,-0.434 -0.491,-0.798 0,0 -2.846,0 -2.846,0 0.063,1.819 1.625,3.372 4.018,3.372 2.495,0 4.246,-1.133 4.246,-3.471 0,-3.669 -5.216,-2.731 -5.216,-4.243 0,-0.364 0.29,-0.574 0.946,-0.574 0.29,0 0.555,0.056 0.769,0.182 0.214,0.126 0.378,0.336 0.429,0.686 -10e-4,0 2.82,0 2.82,0 z m 7.89,-2.924 h -2.457 l -1.083,6.229 h -0.025 l -1.02,-6.229 h -2.872 l 2.255,10.078 h 2.923 l 1.033,-5.851 h 0.025 l 1.046,5.851 h 2.923 l 2.255,-10.078 h -2.872 l -1.02,6.229 h -0.025 z m 13.307,10.078 v -2.35 h -4.599 v -1.584 h 3.742 v -2.35 h -3.742 v -1.444 h 4.423 v -2.35 h -7.395 v 10.078 z m 4.008,-7.728 c 0,0 1.387,0 1.387,0 0.693,0 1.198,0.336 1.198,1.051 0,0.701 -0.492,0.953 -1.412,0.953 0,0 -1.173,0 -1.173,0 z m 0.908,4.214 c 1.387,0 1.589,0.434 1.589,1.751 0,0.896 0.076,1.54 0.151,1.763 0,0 3.01,0 3.01,0 0,0 0,-0.306 0,-0.306 -0.353,0 -0.315,-0.448 -0.315,-1.765 0,-2.03 -0.579,-2.282 -1.536,-2.674 1.058,-0.322 1.524,-1.302 1.524,-2.465 0,-1.959 -0.995,-2.869 -4.019,-2.869 0,0 -4.283,0 -4.283,0 v 10.078 h 2.972 v -3.514 c -0.001,0.001 0.907,0.001 0.907,0.001 z"
   id="path21" />
	</g>
	<g
   transform="rotate(-90,176.8642,-11.1949)"
   id="g27">
		<path
   fill="#000000"
   d="M 101.681,-163.937 H 44.173 l 28.627,49.631 z"
   id="path25" />
	</g>
	<g
   transform="rotate(-90,176.8642,-11.1949)"
   id="g31">
		<path
   stroke="#000000"
   d="M 101.681,-163.937 H 44.173 l 28.627,49.631 z"
   id="path29" />
	</g>
	<g
   transform="translate(-15.9134,315.0905)"
   id="g35">
		<path
   fill="#ffffff"
   d="m 50.811,-217.638 v -2.35 h -3.066 v -1.584 h 2.495 v -2.35 h -2.495 v -1.444 h 2.948 v -2.35 h -4.93 v 10.078 z m 4.267,-3.428 h -1.251 l 0.613,-3.612 z m -1.856,3.428 0.227,-1.33 h 1.974 l 0.235,1.33 h 1.974 l -2.167,-10.078 h -2.016 l -2.167,10.078 z m 10.122,-7.154 c -0.143,-1.763 -0.907,-3.19 -2.587,-3.19 -1.512,0 -2.62,1.077 -2.62,3.218 0,3.851 3.478,2.801 3.478,4.328 0,0.476 -0.328,0.742 -0.824,0.742 -0.193,0 -0.403,-0.084 -0.563,-0.252 -0.168,-0.168 -0.286,-0.434 -0.328,-0.798 0,0 -1.897,0 -1.897,0 0.042,1.819 1.083,3.372 2.679,3.372 1.663,0 2.83,-1.133 2.83,-3.471 0,-3.669 -3.478,-2.731 -3.478,-4.243 0,-0.364 0.193,-0.574 0.63,-0.574 0.193,0 0.37,0.056 0.513,0.182 0.143,0.126 0.252,0.336 0.286,0.686 0,0 1.881,0 1.881,0 z m 4.703,3.431 2.251,-6.355 h -2.184 l -1.041,3.415 -1.041,-3.415 h -2.218 l 2.251,6.411 v 3.667 h 1.981 v -3.723 z"
   id="path33" />
	</g>
	<g
   transform="translate(-0.7053,310.6024)"
   id="g39">
		<path
   fill="#000000"
   d="m 87.73,-216.029 c -0.814,0.22 -1.697,-0.3 -1.697,-1.66 0,-1.24 0.552,-1.84 1.352,-1.84 0.759,0 1.297,0.68 1.297,1.82 0,0.92 -0.303,1.56 -0.952,1.68 z m -0.386,-5.76 c -0.649,0 -1.214,-0.42 -1.214,-1.46 -0.014,-1.04 0.538,-1.56 1.242,-1.56 0.662,0 1.187,0.56 1.187,1.52 -10e-4,1 -0.567,1.5 -1.215,1.5 z m -2.608,1.08 c -0.98,0.68 -1.573,1.52 -1.573,3.2 0,3.1 1.932,4.48 4.209,4.48 2.443,0 4.181,-1.64 4.181,-4.48 0,-1.66 -0.593,-2.72 -1.628,-3.3 0.911,-0.52 1.283,-1.56 1.283,-2.92 0,-2.26 -1.532,-3.9 -3.74,-3.9 -2.098,0 -3.988,1.26 -3.988,3.98 0,1.74 0.497,2.34 1.256,2.94 z"
   id="path37" />
	</g>
	<g
   transform="rotate(-90,381.4311,-215.7618)"
   id="g43">
		<path
   fill="#000000"
   d="M 101.304,-141.26 H 44.545 l 28.255,27.258 z"
   id="path41" />
	</g>
	<g
   transform="rotate(-90,381.4311,-215.7618)"
   id="g47">
		<path
   stroke="#000000"
   d="M 101.304,-141.26 H 44.545 l 28.255,27.258 z"
   id="path45" />
	</g>
	<g
   transform="rotate(90,-160.68365,44.96315)"
   id="g51">
		<path
   stroke="#000000"
   d="m -142.677,-217.323 h 59.393"
   id="path49" />
	</g>
	<g
   transform="rotate(90,-140.98285,64.66395)"
   id="g55">
		<path
   stroke="#000000"
   d="m -142.677,-217.323 h 59.393"
   id="path53" />
	</g>
	<g
   transform="rotate(90,-121.28205,84.36475)"
   id="g59">
		<path
   stroke="#000000"
   d="m -142.677,-217.323 h 59.393"
   id="path57" />
	</g>
	<g
   transform="rotate(90,-101.58125,104.06555)"
   id="g63">
		<path
   stroke="#000000"
   d="m -142.677,-217.323 h 59.393"
   id="path61" />
	</g>
	<g
   transform="rotate(90,-81.8805,123.7663)"
   id="g67">
		<path
   stroke="#000000"
   d="m -142.677,-217.323 h 59.393"
   id="path65" />
	</g>
	<g
   transform="rotate(90,-62.1797,143.4671)"
   id="g71">
		<path
   stroke="#000000"
   d="m -142.677,-217.323 h 59.393"
   id="path69" />
	</g>
	<g
   transform="rotate(90,-42.4789,163.1679)"
   id="g75">
		<path
   stroke="#000000"
   d="m -142.677,-217.323 h 59.393"
   id="path73" />
	</g>
	<g
   transform="rotate(90,-22.77815,182.86865)"
   id="g79">
		<path
   stroke="#000000"
   d="m -142.677,-217.323 h 59.393"
   id="path77" />
	</g>
	<g
   transform="rotate(90,-3.07735,202.56945)"
   id="g83">
		<path
   stroke="#000000"
   d="m -142.677,-217.323 h 59.393"
   id="path81" />
	</g>
	<g
   transform="rotate(90,35.82675,207.85825)"
   id="g87">
		<path
   stroke="#000000"
   d="M -41.453,-240.539 V 220.036 H 17.075 V -240.539 Z"
   id="path85" />
	</g>
	<g
   transform="rotate(90,42.40155,214.74805)"
   id="g91">
		<path
   stroke="#000000"
   d="m -41.453,-285.894 v 38.685 h 58.291 v -38.685 z"
   id="path89" />
	</g>
	<g
   transform="rotate(-90,409.54555,-307.40325)"
   id="g95">
		<path
   fill="#000000"
   d="m -81.709,-221.066 h -1.877 l 0.92,-3.612 z m -2.784,3.428 0.34,-1.33 h 2.961 l 0.353,1.33 h 2.961 l -3.25,-10.078 h -3.023 l -3.25,10.078 z m 10.106,-10.078 h -2.783 v 10.078 h 2.846 v -3.191 l -0.113,-2.296 3.24,5.487 h 2.783 v -10.078 h -2.846 v 3.205 l 0.113,2.296 z m 14.97,2.924 c -0.214,-1.763 -1.36,-3.19 -3.88,-3.19 -2.268,0 -3.93,1.077 -3.93,3.218 0,3.851 5.216,2.801 5.216,4.328 0,0.476 -0.492,0.742 -1.236,0.742 -0.29,0 -0.605,-0.084 -0.845,-0.252 -0.252,-0.168 -0.429,-0.434 -0.491,-0.798 0,0 -2.846,0 -2.846,0 0.063,1.819 1.625,3.372 4.018,3.372 2.495,0 4.246,-1.133 4.246,-3.471 0,-3.669 -5.216,-2.731 -5.216,-4.243 0,-0.364 0.29,-0.574 0.946,-0.574 0.29,0 0.555,0.056 0.769,0.182 0.214,0.126 0.378,0.336 0.429,0.686 -10e-4,0 2.82,0 2.82,0 z m 7.89,-2.924 h -2.457 l -1.083,6.229 h -0.025 l -1.02,-6.229 h -2.872 l 2.255,10.078 h 2.923 l 1.033,-5.851 h 0.025 l 1.046,5.851 h 2.923 l 2.255,-10.078 h -2.872 l -1.02,6.229 h -0.025 z m 13.307,10.078 v -2.35 h -4.599 v -1.584 h 3.742 v -2.35 h -3.742 v -1.444 h 4.423 v -2.35 h -7.395 v 10.078 z m 4.008,-7.728 c 0,0 1.387,0 1.387,0 0.693,0 1.198,0.336 1.198,1.051 0,0.701 -0.492,0.953 -1.412,0.953 0,0 -1.173,0 -1.173,0 z m 0.908,4.214 c 1.387,0 1.589,0.434 1.589,1.751 0,0.896 0.076,1.54 0.151,1.763 0,0 3.01,0 3.01,0 0,0 0,-0.306 0,-0.306 -0.353,0 -0.315,-0.448 -0.315,-1.765 0,-2.03 -0.579,-2.282 -1.536,-2.674 1.058,-0.322 1.524,-1.302 1.524,-2.465 0,-1.959 -0.995,-2.869 -4.019,-2.869 0,0 -4.283,0 -4.283,0 v 10.078 h 2.972 v -3.514 c -0.001,0.001 0.907,0.001 0.907,0.001 z"
   id="path93" />
	</g>
	<g
   transform="rotate(-90,210.5256,22.4665)"
   id="g99">
		<path
   fill="#000000"
   d="M 101.681,-163.937 H 44.173 l 28.627,49.631 z"
   id="path97" />
	</g>
	<g
   transform="rotate(-90,210.5256,22.4665)"
   id="g103">
		<path
   stroke="#000000"
   d="M 101.681,-163.937 H 44.173 l 28.627,49.631 z"
   id="path101" />
	</g>
	<g
   transform="translate(-13.7874,382.4134)"
   id="g107">
		<path
   fill="#ffffff"
   d="m 40.647,-217.638 v -3.415 l -0.042,-1.568 -0.084,-1.484 h 0.017 l 1.101,6.467 h 1.378 l 1.101,-6.467 h 0.017 l -0.101,1.82 -0.025,1.568 v 3.079 h 1.78 v -10.078 h -2.393 l -1.067,6.285 -1.067,-6.285 h -2.393 v 10.078 z m 11.331,0 v -2.35 h -3.066 v -1.584 h 2.495 v -2.35 h -2.495 v -1.444 h 2.948 v -2.35 h -4.93 v 10.078 z m 2.907,-7.728 c 0,0 0.378,0 0.378,0 1.059,0 1.471,0.56 1.471,2.661 0,1.905 -0.504,2.717 -1.429,2.717 0,0 -0.42,0 -0.42,0 z m 0.622,7.728 c 1.941,0 3.208,-1.455 3.208,-5.249 0,-3.318 -1.209,-4.829 -3.158,-4.829 0,0 -2.654,0 -2.654,0 v 10.078 c 0,0 2.604,0 2.604,0 z m 6.005,0 v -10.078 h -1.981 v 10.078 z m 1.236,-4.394 c 0,3.471 1.041,4.66 2.914,4.66 2.008,0 2.906,-1.413 2.906,-4.646 0,0 0,-5.698 0,-5.698 h -1.981 c 0,0 0,6.034 0,6.034 0,1.092 -0.21,1.848 -0.925,1.848 -0.815,0 -0.933,-0.854 -0.933,-1.848 0,0 0,-6.034 0,-6.034 h -1.981 c 0,0 0,5.684 0,5.684 z m 8.693,4.394 v -3.415 l -0.042,-1.568 -0.084,-1.484 h 0.017 l 1.101,6.467 h 1.378 l 1.101,-6.467 h 0.017 l -0.101,1.82 -0.025,1.568 v 3.079 h 1.78 v -10.078 H 74.19 l -1.067,6.285 -1.067,-6.285 h -2.393 v 10.078 z"
   id="path105" />
	</g>
	<g
   transform="translate(2.6018,377.2165)"
   id="g111">
		<path
   fill="#000000"
   d="m 80.503,-224.029 c -1.67,2.54 -3.05,5.98 -3.353,10.7 0,0 2.981,0 2.981,0 0.097,-4.76 1.449,-8.88 3.202,-10.94 0,0 0,-3.16 0,-3.16 h -7.825 v 3.4 c 0,0 4.995,0 4.995,0 z m 12.392,10.7 v -3.4 c 0,0 -4.513,0 -4.513,0 0.511,-0.52 1.256,-1.06 1.96,-1.7 1.27,-1.14 2.581,-2.16 2.581,-4.64 0,-3.28 -1.891,-4.56 -3.905,-4.56 -2.525,0 -4.085,1.68 -4.126,5.82 0,0 2.581,0 2.581,0 -0.014,-1.36 0.304,-2.7 1.408,-2.7 0.58,0 1.173,0.52 1.173,1.42 0,2.34 -2.553,3.3 -4.181,5.76 -0.773,1.16 -1.214,2.36 -1.159,4 -0.002,0 8.181,0 8.181,0 z"
   id="path109" />
	</g>
	<g
   transform="rotate(-90,415.0925,-182.1004)"
   id="g115">
		<path
   fill="#000000"
   d="M 101.304,-141.26 H 44.545 l 28.255,27.258 z"
   id="path113" />
	</g>
	<g
   transform="rotate(-90,415.0925,-182.1004)"
   id="g119">
		<path
   stroke="#000000"
   d="M 101.304,-141.26 H 44.545 l 28.255,27.258 z"
   id="path117" />
	</g>
	<g
   transform="rotate(90,-194.34505,78.62455)"
   id="g123">
		<path
   stroke="#000000"
   d="m -142.677,-217.323 h 59.393"
   id="path121" />
	</g>
	<g
   transform="rotate(90,-174.64425,98.32535)"
   id="g127">
		<path
   stroke="#000000"
   d="m -142.677,-217.323 h 59.393"
   id="path125" />
	</g>
	<g
   transform="rotate(90,-154.94345,118.02615)"
   id="g131">
		<path
   stroke="#000000"
   d="m -142.677,-217.323 h 59.393"
   id="path129" />
	</g>
	<g
   transform="rotate(90,-135.24265,137.72695)"
   id="g135">
		<path
   stroke="#000000"
   d="m -142.677,-217.323 h 59.393"
   id="path133" />
	</g>
	<g
   transform="rotate(90,-115.5419,157.4277)"
   id="g139">
		<path
   stroke="#000000"
   d="m -142.677,-217.323 h 59.393"
   id="path137" />
	</g>
	<g
   transform="rotate(90,-95.8411,177.1285)"
   id="g143">
		<path
   stroke="#000000"
   d="m -142.677,-217.323 h 59.393"
   id="path141" />
	</g>
	<g
   transform="rotate(90,-76.1403,196.8293)"
   id="g147">
		<path
   stroke="#000000"
   d="m -142.677,-217.323 h 59.393"
   id="path145" />
	</g>
	<g
   transform="rotate(90,-56.43955,216.53005)"
   id="g151">
		<path
   stroke="#000000"
   d="m -142.677,-217.323 h 59.393"
   id="path149" />
	</g>
	<g
   transform="rotate(90,-36.73875,236.23085)"
   id="g155">
		<path
   stroke="#000000"
   d="m -142.677,-217.323 h 59.393"
   id="path153" />
	</g>
	<g
   transform="rotate(90,2.0787,241.6063)"
   id="g159">
		<path
   stroke="#000000"
   d="M -41.453,-240.539 V 220.508 H 17.075 V -240.539 Z"
   id="path157" />
	</g>
	<g
   transform="rotate(90,8.74015,248.40945)"
   id="g163">
		<path
   stroke="#000000"
   d="m -41.453,-285.894 v 38.685 h 58.291 v -38.685 z"
   id="path161" />
	</g>
	<g
   transform="rotate(-90,443.20695,-273.74185)"
   id="g167">
		<path
   fill="#000000"
   d="m -81.709,-221.066 h -1.877 l 0.92,-3.612 z m -2.784,3.428 0.34,-1.33 h 2.961 l 0.353,1.33 h 2.961 l -3.25,-10.078 h -3.023 l -3.25,10.078 z m 10.106,-10.078 h -2.783 v 10.078 h 2.846 v -3.191 l -0.113,-2.296 3.24,5.487 h 2.783 v -10.078 h -2.846 v 3.205 l 0.113,2.296 z m 14.97,2.924 c -0.214,-1.763 -1.36,-3.19 -3.88,-3.19 -2.268,0 -3.93,1.077 -3.93,3.218 0,3.851 5.216,2.801 5.216,4.328 0,0.476 -0.492,0.742 -1.236,0.742 -0.29,0 -0.605,-0.084 -0.845,-0.252 -0.252,-0.168 -0.429,-0.434 -0.491,-0.798 0,0 -2.846,0 -2.846,0 0.063,1.819 1.625,3.372 4.018,3.372 2.495,0 4.246,-1.133 4.246,-3.471 0,-3.669 -5.216,-2.731 -5.216,-4.243 0,-0.364 0.29,-0.574 0.946,-0.574 0.29,0 0.555,0.056 0.769,0.182 0.214,0.126 0.378,0.336 0.429,0.686 -10e-4,0 2.82,0 2.82,0 z m 7.89,-2.924 h -2.457 l -1.083,6.229 h -0.025 l -1.02,-6.229 h -2.872 l 2.255,10.078 h 2.923 l 1.033,-5.851 h 0.025 l 1.046,5.851 h 2.923 l 2.255,-10.078 h -2.872 l -1.02,6.229 h -0.025 z m 13.307,10.078 v -2.35 h -4.599 v -1.584 h 3.742 v -2.35 h -3.742 v -1.444 h 4.423 v -2.35 h -7.395 v 10.078 z m 4.008,-7.728 c 0,0 1.387,0 1.387,0 0.693,0 1.198,0.336 1.198,1.051 0,0.701 -0.492,0.953 -1.412,0.953 0,0 -1.173,0 -1.173,0 z m 0.908,4.214 c 1.387,0 1.589,0.434 1.589,1.751 0,0.896 0.076,1.54 0.151,1.763 0,0 3.01,0 3.01,0 0,0 0,-0.306 0,-0.306 -0.353,0 -0.315,-0.448 -0.315,-1.765 0,-2.03 -0.579,-2.282 -1.536,-2.674 1.058,-0.322 1.524,-1.302 1.524,-2.465 0,-1.959 -0.995,-2.869 -4.019,-2.869 0,0 -4.283,0 -4.283,0 v 10.078 h 2.972 v -3.514 c -0.001,0.001 0.907,0.001 0.907,0.001 z"
   id="path165" />
	</g>
	<g
   transform="rotate(-90,244.18705,56.12795)"
   id="g171">
		<path
   fill="#000000"
   d="M 101.681,-163.937 H 44.173 l 28.627,49.631 z"
   id="path169" />
	</g>
	<g
   transform="rotate(-90,244.18705,56.12795)"
   id="g175">
		<path
   stroke="#000000"
   d="M 101.681,-163.937 H 44.173 l 28.627,49.631 z"
   id="path173" />
	</g>
	<g
   transform="translate(-14.4961,449.7362)"
   id="g179">
		<path
   fill="#ffffff"
   d="m 40.685,-217.638 v -3.906 h 1.874 v 3.906 h 1.981 v -10.078 h -1.981 v 3.402 h -1.874 v -3.402 h -1.981 v 10.078 z m 8.324,-3.428 h -1.251 l 0.613,-3.612 z m -1.856,3.428 0.227,-1.33 h 1.974 l 0.235,1.33 h 1.974 l -2.167,-10.078 H 47.38 l -2.167,10.078 z m 6.997,-7.728 c 0,0 0.925,0 0.925,0 0.462,0 0.798,0.336 0.798,1.051 0,0.701 -0.328,0.953 -0.941,0.953 0,0 -0.782,0 -0.782,0 z m 0.605,4.214 c 0.925,0 1.059,0.434 1.059,1.751 0,0.896 0.05,1.54 0.101,1.763 0,0 2.007,0 2.007,0 0,0 0,-0.306 0,-0.306 -0.235,0 -0.21,-0.448 -0.21,-1.765 0,-2.03 -0.386,-2.282 -1.024,-2.674 0.705,-0.322 1.016,-1.302 1.016,-2.465 0,-1.959 -0.663,-2.869 -2.679,-2.869 0,0 -2.855,0 -2.855,0 v 10.078 h 1.981 v -3.514 c -0.001,0.001 0.604,0.001 0.604,0.001 z m 5.964,-4.214 c 0,0 0.378,0 0.378,0 1.059,0 1.471,0.56 1.471,2.661 0,1.905 -0.504,2.717 -1.429,2.717 0,0 -0.42,0 -0.42,0 z m 0.621,7.728 c 1.941,0 3.208,-1.455 3.208,-5.249 0,-3.318 -1.209,-4.829 -3.158,-4.829 0,0 -2.654,0 -2.654,0 v 10.078 c 0.001,0 2.604,0 2.604,0 z m 9.072,0 v -2.35 h -3.066 v -1.584 h 2.495 v -2.35 h -2.495 v -1.444 h 2.948 v -2.35 h -4.93 v 10.078 z m 2.873,-7.728 c 0,0 0.925,0 0.925,0 0.462,0 0.798,0.336 0.798,1.051 0,0.701 -0.328,0.953 -0.941,0.953 0,0 -0.782,0 -0.782,0 z m 0.605,4.214 c 0.925,0 1.059,0.434 1.059,1.751 0,0.896 0.05,1.54 0.101,1.763 0,0 2.007,0 2.007,0 0,0 0,-0.306 0,-0.306 -0.235,0 -0.21,-0.448 -0.21,-1.765 0,-2.03 -0.386,-2.282 -1.024,-2.674 0.705,-0.322 1.016,-1.302 1.016,-2.465 0,-1.959 -0.663,-2.869 -2.679,-2.869 0,0 -2.855,0 -2.855,0 v 10.078 h 1.981 v -3.514 c -0.001,0.001 0.604,0.001 0.604,0.001 z"
   id="path177" />
	</g>
	<g
   transform="translate(-18.4218,445.9567)"
   id="g183">
		<path
   fill="#000000"
   d="m 102.146,-227.629 c 0,0 -2.18,0 -2.18,0 -0.317,2.44 -1.421,3.2 -2.939,3.24 0,0 0,2.84 0,2.84 h 2.249 v 8.22 h 2.87 z m 3.078,11.36 h 4.485 v 2.94 h 2.732 v -2.94 h 1.214 v -3.1 h -1.214 v -8.06 h -2.677 l -4.54,7.82 z m 4.485,-7.4 v 4.3 h -2.318 z"
   id="path181" />
	</g>
	<g
   transform="rotate(-90,448.75395,-148.43895)"
   id="g187">
		<path
   fill="#000000"
   d="M 101.304,-141.26 H 44.545 l 28.255,27.258 z"
   id="path185" />
	</g>
	<g
   transform="rotate(-90,448.75395,-148.43895)"
   id="g191">
		<path
   stroke="#000000"
   d="M 101.304,-141.26 H 44.545 l 28.255,27.258 z"
   id="path189" />
	</g>
	<g
   transform="rotate(90,-228.00645,112.28595)"
   id="g195">
		<path
   stroke="#000000"
   d="m -142.677,-217.323 h 59.393"
   id="path193" />
	</g>
	<g
   transform="rotate(90,-208.30565,131.98675)"
   id="g199">
		<path
   stroke="#000000"
   d="m -142.677,-217.323 h 59.393"
   id="path197" />
	</g>
	<g
   transform="rotate(90,-188.60485,151.68755)"
   id="g203">
		<path
   stroke="#000000"
   d="m -142.677,-217.323 h 59.393"
   id="path201" />
	</g>
	<g
   transform="rotate(90,-168.90405,171.38835)"
   id="g207">
		<path
   stroke="#000000"
   d="m -142.677,-217.323 h 59.393"
   id="path205" />
	</g>
	<g
   transform="rotate(90,-149.2033,191.0891)"
   id="g211">
		<path
   stroke="#000000"
   d="m -142.677,-217.323 h 59.393"
   id="path209" />
	</g>
	<g
   transform="rotate(90,-129.5025,210.7899)"
   id="g215">
		<path
   stroke="#000000"
   d="m -142.677,-217.323 h 59.393"
   id="path213" />
	</g>
	<g
   transform="rotate(90,-109.8017,230.4907)"
   id="g219">
		<path
   stroke="#000000"
   d="m -142.677,-217.323 h 59.393"
   id="path217" />
	</g>
	<g
   transform="rotate(90,-90.10095,250.19145)"
   id="g223">
		<path
   stroke="#000000"
   d="m -142.677,-217.323 h 59.393"
   id="path221" />
	</g>
	<g
   transform="rotate(90,-70.40015,269.89225)"
   id="g227">
		<path
   stroke="#000000"
   d="m -142.677,-217.323 h 59.393"
   id="path225" />
	</g>
	<g
   transform="translate(372.9132,166.7835)"
   id="g231">
		<path
   fill="#000000"
   d="m 19.073,-10.68 h -7.006 v 1.908 h 7.006 z m 10.155,-6.57 h -6.3 l -0.038,2.232 c 0,0 4.448,0 4.448,0 -0.756,1.152 -2.999,5.22 -3.188,10.332 0,0 1.814,0 1.814,0 0.214,-5.508 2.407,-9.288 3.263,-10.62 0.001,0 0.001,-1.944 0.001,-1.944 z m 0.756,6.336 c 0,4.482 0.995,6.57 3.1,6.57 2.104,0 3.1,-2.088 3.1,-6.57 0,-4.482 -0.995,-6.552 -3.1,-6.552 -2.104,0 -3.1,2.07 -3.1,6.552 z m 1.815,0 c 0,-3.294 0.277,-4.536 1.285,-4.536 1.008,0 1.285,1.242 1.285,4.536 0,3.294 -0.277,4.554 -1.285,4.554 -1.008,0 -1.285,-1.26 -1.285,-4.554 z"
   id="path229" />
	</g>
	<g
   transform="translate(135.7242,234.6732)"
   id="g235">
		<path
   fill="#000000"
   d="m 11.834,-10.248 h -2.47 v 2.016 h 2.47 v 3.546 h 1.411 v -3.546 h 2.47 v -2.016 h -2.47 v -3.546 h -1.411 z m 11.403,-2.034 c -0.756,0 -1.147,-0.828 -1.147,-1.584 0,-0.936 0.416,-1.584 1.21,-1.584 0.567,0 1.033,0.612 1.033,1.584 0,0.918 -0.403,1.584 -1.096,1.584 z m 3.087,3.798 c 0,-1.656 -0.479,-2.466 -1.336,-3.078 0.718,-0.54 1.033,-1.476 1.033,-2.574 0,-1.764 -0.983,-3.33 -2.835,-3.33 -1.562,0 -2.785,1.314 -2.785,3.492 0,1.188 0.378,1.998 1.084,2.502 -1.361,0.9 -1.361,2.592 -1.361,3.24 0,1.746 0.794,3.888 3.1,3.888 2.369,0 3.1,-2.52 3.1,-4.14 z m -1.814,0.108 c 0,0.882 -0.353,2.016 -1.273,2.016 -0.806,0 -1.298,-0.81 -1.298,-2.034 0,-1.386 0.617,-1.98 1.26,-1.98 0.983,0 1.311,1.098 1.311,1.998 z m 8.87,-8.874 h -6.3 l -0.038,2.232 c 0,0 4.448,0 4.448,0 -0.756,1.152 -2.999,5.22 -3.188,10.332 0,0 1.814,0 1.814,0 0.214,-5.508 2.407,-9.288 3.263,-10.62 0.001,0 0.001,-1.944 0.001,-1.944 z m 1.046,7.776 2.243,-5.49 c 0,0 0.025,0 0.025,0 0,0.396 -0.038,2.394 -0.038,5.49 0,0 -2.23,0 -2.23,0 z m 4.99,0 H 38.42 v -7.992 h -2.003 l -3.289,7.776 v 2.178 h 3.528 v 2.826 h 1.764 v -2.826 h 0.995 v -1.962 z"
   id="path233" />
	</g>
	<g
   transform="translate(97.173,232.7835)"
   id="g239">
		<path
   fill="#000000"
   d="m 22.229,-2.224 h -1.364 v 9.332 h 1.364 z m 4.049,1.65 h 1.975 V -2.223 H 22.94 v 1.649 h 1.975 v 7.683 h 1.364 v -7.683 z"
   id="path237" />
	</g>
	<g
   transform="translate(97.173,232.7835)"
   id="g243">
		<path
   fill="#000000"
   d="m 5.491,-8.763 c 0,1.157 0.409,3.119 2.793,3.119 0.574,0 2.575,-0.247 2.575,-3.054 0,-1.677 -0.818,-2.198 -1.71,-2.51 0,0 -1.593,-0.559 -1.593,-0.559 -0.273,-0.091 -0.692,-0.247 -0.692,-0.975 0,-0.845 0.619,-1.118 1.138,-1.118 1.193,0 1.302,0.988 1.338,1.404 0,0 1.31,0 1.31,0 -0.009,-1.144 -0.546,-3.015 -2.548,-3.015 -2.12,0 -2.511,1.831 -2.511,2.872 0,2.055 1.018,2.393 2.074,2.744 0,0 0.701,0.234 0.701,0.234 0.692,0.234 1.183,0.429 1.183,1.157 0,0.988 -0.719,1.209 -1.366,1.209 -1.193,0 -1.375,-0.988 -1.384,-1.508 10e-4,0 -1.308,0 -1.308,0 z m 9.336,0.338 c 0,0 0.655,0.884 0.655,0.884 -0.246,0.182 -0.51,0.247 -0.737,0.247 -0.737,0 -1.775,-0.65 -1.775,-3.264 0,-2.614 1.038,-3.264 1.775,-3.264 0.737,0 1.775,0.65 1.775,3.264 0,0.871 -0.118,1.521 -0.3,2.002 0,0 -0.692,-0.923 -0.692,-0.923 z m 3.084,2.157 c 0,0 -0.709,-0.961 -0.709,-0.961 0.4,-0.728 0.682,-1.794 0.682,-3.329 0,-4.381 -2.274,-4.913 -3.139,-4.913 -0.865,0 -3.139,0.532 -3.139,4.913 0,4.381 2.274,4.913 3.139,4.913 0.382,0 1.056,-0.104 1.675,-0.623 0,0 0.773,1.052 0.773,1.052 z m 6.206,-8.956 h -1.391 c 0,0 0,6.149 0,6.149 0,1.131 -0.382,1.781 -1.32,1.781 -0.637,0 -1.165,-0.572 -1.165,-1.872 0,0 0,-6.058 0,-6.058 H 18.85 c 0,0 0,6.188 0,6.188 0.018,0.936 0.155,1.69 0.509,2.261 0.582,0.922 1.474,1.13 2.075,1.13 1.647,0 2.684,-1.052 2.684,-3.508 -10e-4,0 -10e-4,-6.071 -10e-4,-6.071 z m 2.267,7.409 h 2.411 l 0.419,1.924 h 1.483 l -2.302,-9.332 h -1.574 l -2.329,9.332 h 1.438 z m 1.201,-5.303 h 0.018 l 0.81,3.692 h -1.665 z m 3.986,7.227 h 1.337 v -3.653 c 0,0 1.411,0 1.411,0 1.011,0 1.065,0.494 1.065,1.769 0,0.962 0.055,1.444 0.145,1.884 0,0 1.51,0 1.51,0 0,0 0,-0.245 0,-0.245 -0.291,-0.156 -0.291,-0.494 -0.291,-1.86 0,-1.743 -0.291,-2.028 -0.827,-2.366 0.646,-0.312 1.009,-1.196 1.009,-2.223 0,-0.807 -0.318,-2.638 -2.056,-2.638 0,0 -3.303,0 -3.303,0 z m 1.337,-5.225 v -2.498 c 0,0 1.702,0 1.702,0 0.801,0 0.956,0.728 0.956,1.223 0,0.924 -0.346,1.275 -1.056,1.275 0,0 -1.602,0 -1.602,0 z m 10.037,-4.108 h -4.804 v 9.332 H 43.1 v -1.649 h -3.622 v -2.42 h 3.185 v -1.649 h -3.185 v -1.965 h 3.467 z"
   id="path241" />
	</g>
	<g
   transform="translate(97.173,165.4606)"
   id="g247">
		<path
   fill="#000000"
   d="m 14.864,-7.863 h -2.47 v 2.016 h 2.47 v 3.546 h 1.411 v -3.546 h 2.47 v -2.016 h -2.47 v -3.546 h -1.411 z m 11.403,-2.034 c -0.756,0 -1.147,-0.828 -1.147,-1.584 0,-0.936 0.416,-1.584 1.21,-1.584 0.567,0 1.033,0.612 1.033,1.584 0.001,0.918 -0.403,1.584 -1.096,1.584 z m 3.087,3.798 c 0,-1.656 -0.479,-2.466 -1.336,-3.078 0.718,-0.54 1.033,-1.476 1.033,-2.574 0,-1.764 -0.983,-3.33 -2.835,-3.33 -1.562,0 -2.785,1.314 -2.785,3.492 0,1.188 0.378,1.998 1.084,2.502 -1.361,0.9 -1.361,2.592 -1.361,3.24 0,1.746 0.794,3.888 3.1,3.888 2.37,0 3.1,-2.52 3.1,-4.14 z m -1.814,0.108 c 0,0.882 -0.353,2.016 -1.273,2.016 -0.806,0 -1.298,-0.81 -1.298,-2.034 0,-1.386 0.617,-1.98 1.26,-1.98 0.983,0 1.311,1.098 1.311,1.998 z m 5.733,-3.906 c -0.756,0 -1.147,-0.828 -1.147,-1.584 0,-0.936 0.416,-1.584 1.21,-1.584 0.567,0 1.033,0.612 1.033,1.584 0,0.918 -0.403,1.584 -1.096,1.584 z m 3.087,3.798 c 0,-1.656 -0.479,-2.466 -1.336,-3.078 0.718,-0.54 1.033,-1.476 1.033,-2.574 0,-1.764 -0.983,-3.33 -2.835,-3.33 -1.562,0 -2.785,1.314 -2.785,3.492 0,1.188 0.378,1.998 1.084,2.502 -1.361,0.9 -1.361,2.592 -1.361,3.24 0,1.746 0.794,3.888 3.1,3.888 2.369,0 3.1,-2.52 3.1,-4.14 z m -1.814,0.108 c 0,0.882 -0.353,2.016 -1.273,2.016 -0.806,0 -1.298,-0.81 -1.298,-2.034 0,-1.386 0.617,-1.98 1.26,-1.98 0.983,0 1.311,1.098 1.311,1.998 z"
   id="path245" />
	</g>
	<g
   transform="translate(255.4407,164.0433)"
   id="g251">
		<path
   fill="#000000"
   d="m 13.098,2.442 c 0,4.381 2.274,4.913 3.139,4.913 0.865,0 3.139,-0.532 3.139,-4.913 0,-4.381 -2.274,-4.913 -3.139,-4.913 -0.865,0 -3.139,0.533 -3.139,4.913 z m 1.364,0 c 0,-2.614 1.038,-3.264 1.775,-3.264 0.737,0 1.775,0.65 1.775,3.264 0,2.614 -1.038,3.264 -1.775,3.264 -0.737,0 -1.775,-0.65 -1.775,-3.264 z m 7.371,0.741 h 2.876 v -1.65 h -2.876 v -2.108 h 3.285 v -1.649 h -4.649 v 9.332 h 1.364 z m 7.981,-5.407 H 28.45 v 9.332 h 1.364 z m 4.049,1.65 h 1.975 v -1.649 h -5.313 v 1.649 H 32.5 v 7.683 h 1.364 v -7.683 z"
   id="path249" />
	</g>
	<g
   transform="translate(255.4407,164.0433)"
   id="g255">
		<path
   fill="#000000"
   d="m 16.769,-11.858 c 0.009,-0.676 0.036,-1.729 0.929,-1.729 0.619,0 0.892,0.702 0.892,1.313 0,1.04 -0.464,1.508 -1.63,2.718 -1.4,1.456 -1.455,2.587 -1.5,3.665 0,0 4.412,0 4.412,0 v -1.61 c 0,0 -2.803,0 -2.803,0 0.146,-0.429 0.592,-0.845 1.448,-1.703 0.627,-0.611 1.346,-1.417 1.346,-3.004 0,-1.872 -0.982,-2.911 -2.22,-2.911 -0.574,0 -2.111,0.26 -2.111,3.262 0,-0.001 1.237,-0.001 1.237,-0.001 z m 5.325,-1.573 h 2.629 v -1.532 h -3.548 l -0.446,5.069 c 0,0 1.137,0.078 1.137,0.078 0.246,-0.65 0.683,-0.663 0.855,-0.663 0.673,0 0.946,0.832 0.946,1.652 0,0.988 -0.355,1.73 -0.965,1.73 -0.564,0 -0.846,-0.507 -0.901,-1.262 0,0 -1.274,0 -1.274,0 0.064,1.859 1.092,2.716 2.102,2.716 1.901,0 2.347,-2.053 2.347,-3.314 0,-2.119 -1.091,-2.976 -1.955,-2.976 -0.628,0 -0.919,0.273 -1.156,0.506 0.001,-0.001 0.229,-2.004 0.229,-2.004 z m 4.439,0.676 c 0,-0.572 0.328,-1.028 0.719,-1.028 0.392,0 0.719,0.455 0.719,1.028 0,0.572 -0.328,1.028 -0.719,1.028 -0.391,0 -0.719,-0.455 -0.719,-1.028 z m -0.936,0 c 0,1.326 0.745,2.365 1.656,2.365 0.901,0 1.656,-1.052 1.656,-2.365 0,-1.3 -0.754,-2.365 -1.656,-2.365 -0.911,0 -1.656,1.052 -1.656,2.365 z m 5.914,-2.365 h -0.674 l -3.621,9.475 h 0.674 z m -1.646,7.019 c 0,1.326 0.745,2.365 1.656,2.365 0.901,0 1.656,-1.052 1.656,-2.365 0,-1.3 -0.754,-2.365 -1.656,-2.365 -0.911,0 -1.656,1.052 -1.656,2.365 z m 0.936,0 c 0,-0.572 0.328,-1.028 0.719,-1.028 0.392,0 0.719,0.455 0.719,1.028 0,0.573 -0.328,1.028 -0.719,1.028 -0.391,0 -0.719,-0.455 -0.719,-1.028 z"
   id="path253" />
	</g>
	<g
   transform="translate(215.2832,167.7047)"
   id="g259">
		<path
   fill="#000000"
   d="m 19.073,-10.68 h -7.006 v 1.908 h 7.006 z m 9.878,-3.546 c -0.164,-1.35 -0.34,-1.728 -0.832,-2.412 -0.441,-0.63 -1.462,-0.828 -1.827,-0.828 -3.1,0 -3.326,4.266 -3.326,6.696 0,3.186 0.529,6.426 3.238,6.426 1.726,0 2.923,-1.872 2.923,-4.662 0,-1.908 -0.882,-3.942 -2.734,-3.942 -0.995,0 -1.436,0.594 -1.676,1.062 0,0 -0.025,-0.036 -0.025,-0.036 0.063,-1.656 0.328,-3.528 1.474,-3.528 0.655,0 0.983,0.504 1.033,1.224 10e-4,0 1.752,0 1.752,0 z m -1.587,5.436 c 0,1.728 -0.592,2.43 -1.235,2.43 -0.844,0 -1.399,-0.99 -1.399,-2.376 0,-1.602 0.68,-2.196 1.348,-2.196 0.555,0 1.286,0.522 1.286,2.142 z m 5.733,-3.492 c -0.756,0 -1.147,-0.828 -1.147,-1.584 0,-0.936 0.416,-1.584 1.21,-1.584 0.567,0 1.033,0.612 1.033,1.584 0,0.918 -0.403,1.584 -1.096,1.584 z m 3.087,3.798 c 0,-1.656 -0.479,-2.466 -1.336,-3.078 0.718,-0.54 1.033,-1.476 1.033,-2.574 0,-1.764 -0.983,-3.33 -2.835,-3.33 -1.562,0 -2.785,1.314 -2.785,3.492 0,1.188 0.378,1.998 1.084,2.502 -1.361,0.9 -1.361,2.592 -1.361,3.24 0,1.746 0.794,3.888 3.1,3.888 2.369,0 3.1,-2.52 3.1,-4.14 z m -1.815,0.108 c 0,0.882 -0.353,2.016 -1.273,2.016 -0.806,0 -1.298,-0.81 -1.298,-2.034 0,-1.386 0.617,-1.98 1.26,-1.98 0.984,0 1.311,1.098 1.311,1.998 z"
   id="path257" />
	</g>
	<g
   transform="translate(96.6061,100.0512)"
   id="g263">
		<path
   fill="#000000"
   d="m 20.106,-9.564 2.205,-4.698 h -2.079 l -1.109,2.79 -1.134,-2.79 h -2.142 l 2.192,4.698 -2.281,4.878 h 2.129 l 1.159,-2.88 1.159,2.88 h 2.18 z m 8.114,-3.672 c 0,-1.836 0.819,-2.16 1.273,-2.16 0.907,0 1.348,0.9 1.348,2.358 0,1.512 -0.68,2.142 -1.298,2.142 -0.667,0 -1.323,-0.414 -1.323,-2.34 z m -1.587,5.598 c 0.151,2.034 1.247,3.294 2.772,3.294 1.613,0 3.251,-1.602 3.251,-6.552 0,-1.8 -0.05,-6.57 -3.15,-6.57 -1.751,0 -3.049,1.458 -3.049,4.59 0,2.142 0.995,3.996 2.709,3.996 0.605,0 1.298,-0.216 1.701,-1.08 0,0 0.025,0.036 0.025,0.036 -0.013,2.682 -0.743,3.564 -1.474,3.564 -0.542,0 -0.932,-0.378 -1.033,-1.26 0,0 0,-0.018 0,-0.018 0,0 -1.752,0 -1.752,0 z"
   id="path261" />
	</g>
	<g
   transform="translate(136.5746,163.3346)"
   id="g267">
		<path
   fill="#000000"
   d="m 13.098,2.442 c 0,4.381 2.274,4.913 3.139,4.913 0.865,0 3.139,-0.532 3.139,-4.913 0,-4.381 -2.274,-4.913 -3.139,-4.913 -0.865,0 -3.139,0.533 -3.139,4.913 z m 1.364,0 c 0,-2.614 1.038,-3.264 1.775,-3.264 0.737,0 1.775,0.65 1.775,3.264 0,2.614 -1.038,3.264 -1.775,3.264 -0.737,0 -1.775,-0.65 -1.775,-3.264 z m 7.371,0.741 h 2.876 v -1.65 h -2.876 v -2.108 h 3.285 v -1.649 h -4.649 v 9.332 h 1.364 z m 7.981,-5.407 H 28.45 v 9.332 h 1.364 z m 4.049,1.65 h 1.975 v -1.649 h -5.313 v 1.649 H 32.5 v 7.683 h 1.364 v -7.683 z"
   id="path265" />
	</g>
	<g
   transform="translate(136.5746,163.3346)"
   id="g271">
		<path
   fill="#000000"
   d="m 20.027,-14.964 h -4.549 l -0.027,1.61 c 0,0 3.211,0 3.211,0 -0.546,0.832 -2.165,3.77 -2.301,7.462 0,0 1.309,0 1.309,0 0.155,-3.978 1.738,-6.708 2.357,-7.67 0,10e-4 0,-1.402 0,-1.402 z m 0.547,4.575 c 0,3.238 0.718,4.744 2.238,4.744 1.52,0 2.238,-1.506 2.238,-4.744 0,-3.238 -0.718,-4.731 -2.238,-4.731 -1.52,0 -2.238,1.494 -2.238,4.731 z m 1.309,0 c 0,-2.38 0.2,-3.277 0.929,-3.277 0.728,0 0.929,0.897 0.929,3.277 0,2.38 -0.2,3.29 -0.929,3.29 -0.729,0 -0.929,-0.91 -0.929,-3.29 z m 4.65,-2.366 c 0,-0.572 0.328,-1.028 0.719,-1.028 0.392,0 0.719,0.455 0.719,1.028 0,0.572 -0.328,1.028 -0.719,1.028 -0.391,0 -0.719,-0.455 -0.719,-1.028 z m -0.936,0 c 0,1.326 0.745,2.365 1.656,2.365 0.901,0 1.656,-1.052 1.656,-2.365 0,-1.3 -0.754,-2.365 -1.656,-2.365 -0.911,0 -1.656,1.052 -1.656,2.365 z m 5.914,-2.365 h -0.674 l -3.621,9.475 h 0.674 z m -1.646,7.019 c 0,1.326 0.745,2.365 1.656,2.365 0.901,0 1.656,-1.052 1.656,-2.365 0,-1.3 -0.754,-2.365 -1.656,-2.365 -0.911,0 -1.656,1.052 -1.656,2.365 z m 0.936,0 c 0,-0.572 0.328,-1.028 0.719,-1.028 0.392,0 0.719,0.455 0.719,1.028 0,0.573 -0.328,1.028 -0.719,1.028 -0.391,0 -0.719,-0.455 -0.719,-1.028 z"
   id="path269" />
	</g>
	<g
   transform="translate(333.2281,234.1063)"
   id="g275">
		<path
   fill="#000000"
   d="m 13.098,0.057 c 0,4.381 2.274,4.913 3.139,4.913 0.865,0 3.139,-0.532 3.139,-4.913 0,-4.381 -2.274,-4.913 -3.139,-4.913 -0.865,-0.001 -3.139,0.532 -3.139,4.913 z m 1.364,0 c 0,-2.614 1.038,-3.264 1.775,-3.264 0.737,0 1.775,0.65 1.775,3.264 0,2.614 -1.037,3.263 -1.775,3.263 -0.737,0 -1.775,-0.65 -1.775,-3.263 z m 7.371,0.74 h 2.876 V -0.852 H 21.833 V -2.96 h 3.285 v -1.65 h -4.649 v 9.332 h 1.364 z M 29.814,-4.61 H 28.45 v 9.332 h 1.364 z m 4.049,1.65 h 1.975 v -1.65 h -5.313 v 1.649 H 32.5 v 7.683 h 1.364 V -2.96 Z"
   id="path273" />
	</g>
	<g
   transform="translate(333.2281,234.1063)"
   id="g279">
		<path
   fill="#000000"
   d="m 20.027,-17.35 h -4.549 l -0.027,1.61 c 0,0 3.211,0 3.211,0 -0.546,0.832 -2.165,3.77 -2.301,7.462 0,0 1.309,0 1.309,0 0.155,-3.978 1.738,-6.708 2.357,-7.67 0,0.001 0,-1.402 0,-1.402 z m 0.547,4.576 c 0,3.238 0.718,4.744 2.238,4.744 1.52,0 2.238,-1.506 2.238,-4.744 0,-3.238 -0.718,-4.731 -2.238,-4.731 -1.52,-0.001 -2.238,1.493 -2.238,4.731 z m 1.309,0 c 0,-2.38 0.2,-3.277 0.929,-3.277 0.728,0 0.929,0.897 0.929,3.277 0,2.38 -0.2,3.29 -0.929,3.29 -0.729,-10e-4 -0.929,-0.911 -0.929,-3.29 z m 4.65,-2.366 c 0,-0.572 0.328,-1.028 0.719,-1.028 0.392,0 0.719,0.455 0.719,1.028 0,0.572 -0.328,1.028 -0.719,1.028 -0.391,-10e-4 -0.719,-0.456 -0.719,-1.028 z m -0.936,0 c 0,1.326 0.745,2.365 1.656,2.365 0.901,0 1.656,-1.052 1.656,-2.365 0,-1.3 -0.754,-2.365 -1.656,-2.365 -0.911,-0.001 -1.656,1.051 -1.656,2.365 z m 5.914,-2.366 h -0.674 l -3.621,9.476 h 0.674 z m -1.646,7.02 c 0,1.326 0.745,2.365 1.656,2.365 0.901,0 1.656,-1.052 1.656,-2.365 0,-1.3 -0.754,-2.365 -1.656,-2.365 -0.911,-10e-4 -1.656,1.051 -1.656,2.365 z m 0.936,0 c 0,-0.572 0.328,-1.028 0.719,-1.028 0.392,0 0.719,0.455 0.719,1.028 0,0.572 -0.328,1.028 -0.719,1.028 -0.391,-10e-4 -0.719,-0.456 -0.719,-1.028 z"
   id="path277" />
	</g>
	<g
   transform="translate(208.0967,92.9516)"
   id="g283">
		<path
   fill="#000000"
   d="m -4.657,-6.18 h 2.889 v -1.179 h -3.899 l -0.49,3.899 c 0,0 1.25,0.06 1.25,0.06 0.27,-0.5 0.75,-0.51 0.94,-0.51 0.74,0 1.04,0.64 1.04,1.271 0,0.76 -0.39,1.331 -1.06,1.331 -0.62,0 -0.93,-0.39 -0.99,-0.97 0,0 -1.4,0 -1.4,0 0.07,1.43 1.2,2.089 2.31,2.089 2.089,0 2.579,-1.579 2.579,-2.549 0,-1.63 -1.199,-2.289 -2.149,-2.289 -0.69,0 -1.01,0.21 -1.27,0.39 0,-0.002 0.25,-1.543 0.25,-1.543 z"
   id="path281" />
	</g>
	<g
   transform="translate(206.315,87.8639)"
   id="g287">
		<path
   fill="#000000"
   d="M -3.666,-7.588 H -4.59 L -8.032,2.994 h 0.938 z"
   id="path285" />
	</g>
	<g
   transform="translate(336.4449,322.8419)"
   id="g291">
		<path
   fill="#000000"
   d="m -147.335,-223.022 c 0,4.381 2.274,4.913 3.139,4.913 0.865,0 3.139,-0.532 3.139,-4.913 0,-4.381 -2.274,-4.913 -3.139,-4.913 -0.865,0 -3.139,0.532 -3.139,4.913 z m 1.364,0 c 0,-2.614 1.038,-3.264 1.775,-3.264 0.737,0 1.775,0.65 1.775,3.264 0,2.614 -1.038,3.264 -1.775,3.264 -0.737,0 -1.775,-0.65 -1.775,-3.264 z m 7.371,0.74 h 2.876 v -1.649 h -2.876 v -2.108 h 3.285 v -1.649 h -4.649 v 9.332 h 1.364 z m 7.98,-5.406 h -1.364 v 9.332 h 1.364 z m 4.05,1.649 h 1.975 v -1.649 h -5.313 v 1.649 h 1.975 v 7.683 h 1.364 v -7.683 z"
   id="path289" />
	</g>
	<g
   transform="translate(205.64,87.7469)"
   id="g295">
		<path
   fill="#000000"
   d="m -10.382,-4.969 c 0.01,-0.52 0.04,-1.33 1.021,-1.33 0.68,0 0.981,0.54 0.981,1.01 0,0.8 -0.51,1.16 -1.791,2.091 -1.539,1.12 -1.599,1.99 -1.649,2.819 0,0 4.849,0 4.849,0 v -1.239 c 0,0 -3.08,0 -3.08,0 0.16,-0.33 0.65,-0.65 1.591,-1.31 0.689,-0.47 1.479,-1.09 1.479,-2.311 0,-1.44 -1.079,-2.239 -2.439,-2.239 -0.63,0 -2.319,0.2 -2.319,2.509 -10e-4,0 1.357,0 1.357,0 z"
   id="path293" />
	</g>
	<g
   transform="translate(215.0943,100.0512)"
   id="g299">
		<path
   fill="#000000"
   d="m 15.085,-10.248 h -2.47 v 2.016 h 2.47 v 3.546 h 1.411 v -3.546 h 2.47 v -2.016 h -2.47 v -3.546 h -1.411 z m 8.757,-3.24 h 2.129 v 8.802 h 1.764 v -12.78 c 0,0 -1.449,0 -1.449,0 -0.038,0.954 -0.491,2.214 -2.192,2.214 0,0 -0.252,0 -0.252,0 z m 8.203,-1.638 h 3.641 v -2.124 h -4.914 l -0.617,7.02 c 0,0 1.575,0.108 1.575,0.108 0.34,-0.9 0.945,-0.918 1.184,-0.918 0.932,0 1.31,1.152 1.31,2.286 0,1.368 -0.491,2.394 -1.336,2.394 -0.781,0 -1.172,-0.702 -1.247,-1.746 0,0 -1.764,0 -1.764,0 0.088,2.574 1.512,3.762 2.911,3.762 2.633,0 3.251,-2.844 3.251,-4.59 0,-2.934 -1.512,-4.122 -2.709,-4.122 -0.869,0 -1.273,0.378 -1.6,0.702 0,0 0.315,-2.772 0.315,-2.772 z"
   id="path297" />
	</g>
	<g
   transform="translate(294.4644,99.3189)"
   id="g303">
		<path
   fill="#000000"
   d="m 18.367,-10.248 h -2.47 v 2.016 h 2.47 v 3.546 h 1.411 v -3.546 h 2.47 v -2.016 h -2.47 v -3.546 h -1.411 z m 14.263,-3.978 c -0.164,-1.35 -0.34,-1.728 -0.832,-2.412 -0.441,-0.63 -1.462,-0.828 -1.827,-0.828 -3.1,0 -3.326,4.266 -3.326,6.696 0,3.186 0.529,6.426 3.238,6.426 1.726,0 2.923,-1.872 2.923,-4.662 0,-1.908 -0.882,-3.942 -2.734,-3.942 -0.995,0 -1.436,0.594 -1.676,1.062 0,0 -0.025,-0.036 -0.025,-0.036 0.063,-1.656 0.328,-3.528 1.474,-3.528 0.655,0 0.983,0.504 1.033,1.224 0.001,0 1.752,0 1.752,0 z m -1.587,5.436 c 0,1.728 -0.592,2.43 -1.235,2.43 -0.844,0 -1.399,-0.99 -1.399,-2.376 0,-1.602 0.68,-2.196 1.348,-2.196 0.555,0 1.286,0.522 1.286,2.142 z"
   id="path301" />
	</g>
	<g
   transform="translate(289.1676,227.7165)"
   id="g307">
		<path
   fill="#000000"
   d="m -4.949,-4.969 c 0.01,-0.52 0.04,-1.33 1.021,-1.33 0.68,0 0.981,0.54 0.981,1.01 0,0.8 -0.51,1.16 -1.791,2.091 -1.539,1.12 -1.599,1.99 -1.649,2.819 0,0 4.849,0 4.849,0 v -1.239 c 0,0 -3.08,0 -3.08,0 0.16,-0.33 0.65,-0.65 1.591,-1.31 0.689,-0.47 1.479,-1.09 1.479,-2.311 0,-1.44 -1.079,-2.239 -2.439,-2.239 -0.63,0 -2.319,0.2 -2.319,2.509 -0.001,0 1.357,0 1.357,0 z"
   id="path305" />
	</g>
	<g
   transform="translate(287.3858,222.6288)"
   id="g311">
		<path
   fill="#000000"
   d="M -3.666,-7.588 H -4.59 L -8.032,2.994 h 0.938 z"
   id="path309" />
	</g>
	<g
   transform="translate(415.3898,457.6069)"
   id="g315">
		<path
   fill="#000000"
   d="m -147.335,-223.022 c 0,4.381 2.274,4.913 3.139,4.913 0.865,0 3.139,-0.532 3.139,-4.913 0,-4.381 -2.274,-4.913 -3.139,-4.913 -0.865,0 -3.139,0.532 -3.139,4.913 z m 1.364,0 c 0,-2.614 1.038,-3.264 1.775,-3.264 0.737,0 1.775,0.65 1.775,3.264 0,2.614 -1.038,3.264 -1.775,3.264 -0.737,0 -1.775,-0.65 -1.775,-3.264 z m 7.371,0.74 h 2.876 v -1.649 h -2.876 v -2.108 h 3.285 v -1.649 h -4.649 v 9.332 h 1.364 z m 7.98,-5.406 h -1.364 v 9.332 h 1.364 z m 4.05,1.649 h 1.975 v -1.649 h -5.313 v 1.649 h 1.975 v 7.683 h 1.364 v -7.683 z"
   id="path313" />
	</g>
	<g
   transform="translate(293.0889,222.5118)"
   id="g319">
		<path
   fill="#000000"
   d="m -17.792,-5.27 h 1.69 v 4.89 h 1.399 v -7.099 c 0,0 -1.149,0 -1.149,0 -0.03,0.53 -0.39,1.23 -1.74,1.23 0,0 -0.2,0 -0.2,0 z"
   id="path317" />
	</g>
	<g
   transform="translate(135.9132,100.2874)"
   id="g323">
		<path
   fill="#000000"
   d="M 22.576,-10.68 H 15.57 v 1.908 h 7.006 z m 10.155,-6.57 h -6.3 l -0.038,2.232 c 0,0 4.448,0 4.448,0 -0.756,1.152 -2.999,5.22 -3.188,10.332 0,0 1.814,0 1.814,0 0.214,-5.508 2.407,-9.288 3.263,-10.62 0.001,0 0.001,-1.944 0.001,-1.944 z"
   id="path321" />
	</g>
	<g
   transform="translate(333.2281,97.1929)"
   id="g327">
		<path
   fill="#000000"
   d="m 13.098,2.442 c 0,4.381 2.274,4.913 3.139,4.913 0.865,0 3.139,-0.532 3.139,-4.913 0,-4.381 -2.274,-4.913 -3.139,-4.913 -0.865,0 -3.139,0.533 -3.139,4.913 z m 1.364,0 c 0,-2.614 1.038,-3.264 1.775,-3.264 0.737,0 1.775,0.65 1.775,3.264 0,2.614 -1.038,3.264 -1.775,3.264 -0.737,0 -1.775,-0.65 -1.775,-3.264 z m 7.371,0.741 h 2.876 v -1.65 h -2.876 v -2.108 h 3.285 v -1.649 h -4.649 v 9.332 h 1.364 z m 7.981,-5.407 H 28.45 v 9.332 h 1.364 z m 4.049,1.65 h 1.975 v -1.649 h -5.313 v 1.649 H 32.5 v 7.683 h 1.364 v -7.683 z"
   id="path325" />
	</g>
	<g
   transform="translate(333.2281,97.1929)"
   id="g331">
		<path
   fill="#000000"
   d="m 17.034,-13.431 h 2.629 v -1.532 h -3.548 l -0.446,5.069 c 0,0 1.137,0.078 1.137,0.078 0.246,-0.65 0.683,-0.663 0.855,-0.663 0.673,0 0.946,0.832 0.946,1.652 0,0.988 -0.355,1.73 -0.965,1.73 -0.564,0 -0.846,-0.507 -0.901,-1.262 0,0 -1.274,0 -1.274,0 0.064,1.859 1.092,2.716 2.102,2.716 1.901,0 2.347,-2.053 2.347,-3.314 0,-2.119 -1.091,-2.976 -1.955,-2.976 -0.628,0 -0.919,0.273 -1.156,0.506 0.001,-0.001 0.229,-2.004 0.229,-2.004 z m 3.54,3.042 c 0,3.238 0.718,4.744 2.238,4.744 1.52,0 2.238,-1.506 2.238,-4.744 0,-3.238 -0.718,-4.731 -2.238,-4.731 -1.52,0 -2.238,1.494 -2.238,4.731 z m 1.309,0 c 0,-2.38 0.2,-3.277 0.929,-3.277 0.728,0 0.929,0.897 0.929,3.277 0,2.38 -0.2,3.29 -0.929,3.29 -0.729,0 -0.929,-0.91 -0.929,-3.29 z m 4.65,-2.366 c 0,-0.572 0.328,-1.028 0.719,-1.028 0.392,0 0.719,0.455 0.719,1.028 0,0.572 -0.328,1.028 -0.719,1.028 -0.391,0 -0.719,-0.455 -0.719,-1.028 z m -0.936,0 c 0,1.326 0.745,2.365 1.656,2.365 0.901,0 1.656,-1.052 1.656,-2.365 0,-1.3 -0.754,-2.365 -1.656,-2.365 -0.911,0 -1.656,1.052 -1.656,2.365 z m 5.914,-2.365 h -0.674 l -3.621,9.475 h 0.674 z m -1.646,7.019 c 0,1.326 0.745,2.365 1.656,2.365 0.901,0 1.656,-1.052 1.656,-2.365 0,-1.3 -0.754,-2.365 -1.656,-2.365 -0.911,0 -1.656,1.052 -1.656,2.365 z m 0.936,0 c 0,-0.572 0.328,-1.028 0.719,-1.028 0.392,0 0.719,0.455 0.719,1.028 0,0.573 -0.328,1.028 -0.719,1.028 -0.391,0 -0.719,-0.455 -0.719,-1.028 z"
   id="path329" />
	</g>
	<g
   transform="translate(175.9762,167.1378)"
   id="g335">
		<path
   fill="#000000"
   d="m 20.106,-9.564 2.205,-4.698 h -2.079 l -1.109,2.79 -1.134,-2.79 h -2.142 l 2.192,4.698 -2.281,4.878 h 2.129 l 1.159,-2.88 1.159,2.88 h 2.18 z m 8.114,-3.384 c 0.013,-0.936 0.05,-2.394 1.285,-2.394 0.857,0 1.235,0.972 1.235,1.818 0,1.44 -0.643,2.088 -2.255,3.762 -1.94,2.016 -2.016,3.582 -2.079,5.076 0,0 6.111,0 6.111,0 v -2.232 c 0,0 -3.881,0 -3.881,0 0.202,-0.594 0.819,-1.17 2.003,-2.358 0.869,-0.846 1.865,-1.962 1.865,-4.158 0,-2.592 -1.361,-4.032 -3.074,-4.032 -0.794,0 -2.923,0.36 -2.923,4.518 0,0 1.713,0 1.713,0 z"
   id="path333" />
	</g>
	<g
   transform="translate(412.5982,232.3583)"
   id="g339">
		<path
   fill="#000000"
   d="m 11.614,-7.863 h -2.47 v 2.016 h 2.47 v 3.546 h 1.411 v -3.546 h 2.47 v -2.016 h -2.47 v -3.546 h -1.411 z m 14.54,-7.002 h -6.3 l -0.038,2.232 c 0,0 4.448,0 4.448,0 -0.756,1.152 -2.999,5.22 -3.188,10.332 0,0 1.814,0 1.814,0 0.214,-5.508 2.407,-9.288 3.263,-10.62 0.001,0 0.001,-1.944 0.001,-1.944 z m 6.224,3.024 c -0.164,-1.35 -0.34,-1.728 -0.832,-2.412 -0.441,-0.63 -1.462,-0.828 -1.827,-0.828 -3.1,0 -3.326,4.266 -3.326,6.696 0,3.186 0.529,6.426 3.238,6.426 1.726,0 2.923,-1.872 2.923,-4.662 0,-1.908 -0.882,-3.942 -2.734,-3.942 -0.995,0 -1.436,0.594 -1.676,1.062 0,0 -0.025,-0.036 -0.025,-0.036 0.063,-1.656 0.328,-3.528 1.474,-3.528 0.655,0 0.983,0.504 1.033,1.224 10e-4,0 1.752,0 1.752,0 z m -1.587,5.436 c 0,1.728 -0.592,2.43 -1.235,2.43 -0.844,0 -1.399,-0.99 -1.399,-2.376 0,-1.602 0.68,-2.196 1.348,-2.196 0.555,0 1.286,0.522 1.286,2.142 z m 8.87,-8.46 h -6.3 l -0.038,2.232 c 0,0 4.448,0 4.448,0 -0.756,1.152 -2.999,5.22 -3.188,10.332 0,0 1.814,0 1.814,0 0.214,-5.508 2.407,-9.288 3.263,-10.62 0.001,0 0.001,-1.944 0.001,-1.944 z"
   id="path337" />
	</g>
	<g
   transform="translate(411.8187,97.4291)"
   id="g343">
		<path
   fill="#000000"
   d="m 20.106,-7.179 2.205,-4.698 h -2.079 l -1.109,2.79 -1.134,-2.79 h -2.142 l 2.192,4.698 -2.281,4.878 h 2.129 l 1.159,-2.88 1.159,2.88 h 2.18 z m 8.114,-3.384 c 0.013,-0.936 0.05,-2.394 1.285,-2.394 0.857,0 1.235,0.972 1.235,1.818 0,1.44 -0.643,2.088 -2.255,3.762 -1.94,2.016 -2.016,3.582 -2.079,5.076 0,0 6.111,0 6.111,0 v -2.232 c 0,0 -3.881,0 -3.881,0 0.202,-0.594 0.819,-1.17 2.003,-2.358 0.869,-0.846 1.865,-1.962 1.865,-4.158 0,-2.592 -1.361,-4.032 -3.074,-4.032 -0.794,0 -2.923,0.36 -2.923,4.518 0,0 1.713,0 1.713,0 z"
   id="path341" />
	</g>
	<g
   transform="translate(294.5352,166.4291)"
   id="g347">
		<path
   fill="#000000"
   d="m 14.864,-10.248 h -2.47 v 2.016 h 2.47 v 3.546 h 1.411 v -3.546 h 2.47 v -2.016 h -2.47 v -3.546 h -1.411 z m 10.03,-2.988 c 0,-1.836 0.819,-2.16 1.273,-2.16 0.907,0 1.348,0.9 1.348,2.358 0,1.512 -0.68,2.142 -1.298,2.142 -0.668,0 -1.323,-0.414 -1.323,-2.34 z m -1.588,5.598 c 0.151,2.034 1.247,3.294 2.772,3.294 1.613,0 3.251,-1.602 3.251,-6.552 0,-1.8 -0.05,-6.57 -3.15,-6.57 -1.751,0 -3.049,1.458 -3.049,4.59 0,2.142 0.995,3.996 2.709,3.996 0.605,0 1.298,-0.216 1.701,-1.08 0,0 0.025,0.036 0.025,0.036 -0.013,2.682 -0.743,3.564 -1.474,3.564 -0.542,0 -0.932,-0.378 -1.033,-1.26 0,0 0,-0.018 0,-0.018 0,0 -1.752,0 -1.752,0 z m 9.967,-4.644 c -0.756,0 -1.147,-0.828 -1.147,-1.584 0,-0.936 0.416,-1.584 1.21,-1.584 0.567,0 1.033,0.612 1.033,1.584 0,0.918 -0.403,1.584 -1.096,1.584 z m 3.087,3.798 c 0,-1.656 -0.479,-2.466 -1.336,-3.078 0.718,-0.54 1.033,-1.476 1.033,-2.574 0,-1.764 -0.983,-3.33 -2.835,-3.33 -1.562,0 -2.785,1.314 -2.785,3.492 0,1.188 0.378,1.998 1.084,2.502 -1.361,0.9 -1.361,2.592 -1.361,3.24 0,1.746 0.794,3.888 3.1,3.888 2.369,0 3.1,-2.52 3.1,-4.14 z m -1.814,0.108 c 0,0.882 -0.353,2.016 -1.273,2.016 -0.806,0 -1.298,-0.81 -1.298,-2.034 0,-1.386 0.617,-1.98 1.26,-1.98 0.983,0 1.311,1.098 1.311,1.998 z"
   id="path345" />
	</g>
	<g
   transform="translate(444.3644,157.7559)"
   id="g351">
		<path
   fill="#000000"
   d="m -4.518,-3.49 c 0.65,0 1.591,0.04 1.591,1.011 0,0.79 -0.49,1.171 -1.051,1.171 -0.941,0 -1.041,-0.86 -1.041,-1.241 0,0 0.01,-0.01 0.01,-0.01 0,0 -1.369,0 -1.369,0 0,2.22 1.799,2.369 2.469,2.369 1.43,0 2.419,-0.949 2.419,-2.289 0,-1.21 -0.819,-1.58 -1.069,-1.65 0,0 0,-0.02 0,-0.02 0.399,-0.18 0.849,-0.63 0.849,-1.35 0,-1.5 -1.249,-1.979 -2.199,-1.979 -1.6,0 -2.349,0.949 -2.349,2.28 0,0 1.299,0 1.299,0 0,-0.25 0,-1.161 0.961,-1.161 0.771,0 0.891,0.65 0.891,0.911 0,0.921 -0.771,0.961 -1.191,0.961 0,0 -0.22,0 -0.22,0 0,0 0,0.997 0,0.997 z"
   id="path349" />
	</g>
	<g
   transform="translate(442.5827,152.6682)"
   id="g355">
		<path
   fill="#000000"
   d="M -3.666,-7.588 H -4.59 L -8.032,2.994 h 0.938 z"
   id="path353" />
	</g>
	<g
   transform="translate(572.7126,387.6462)"
   id="g359">
		<path
   fill="#000000"
   d="m -147.335,-223.022 c 0,4.381 2.274,4.913 3.139,4.913 0.865,0 3.139,-0.532 3.139,-4.913 0,-4.381 -2.274,-4.913 -3.139,-4.913 -0.865,0 -3.139,0.532 -3.139,4.913 z m 1.364,0 c 0,-2.614 1.038,-3.264 1.775,-3.264 0.737,0 1.775,0.65 1.775,3.264 0,2.614 -1.038,3.264 -1.775,3.264 -0.737,0 -1.775,-0.65 -1.775,-3.264 z m 7.371,0.74 h 2.876 v -1.649 h -2.876 v -2.108 h 3.285 v -1.649 h -4.649 v 9.332 h 1.364 z m 7.98,-5.406 h -1.364 v 9.332 h 1.364 z m 4.05,1.649 h 1.975 v -1.649 h -5.313 v 1.649 h 1.975 v 7.683 h 1.364 v -7.683 z"
   id="path357" />
	</g>
	<g
   transform="translate(441.9078,152.5512)"
   id="g363">
		<path
   fill="#000000"
   d="m -10.382,-4.969 c 0.01,-0.52 0.04,-1.33 1.021,-1.33 0.68,0 0.981,0.54 0.981,1.01 0,0.8 -0.51,1.16 -1.791,2.091 -1.539,1.12 -1.599,1.99 -1.649,2.819 0,0 4.849,0 4.849,0 v -1.239 c 0,0 -3.08,0 -3.08,0 0.16,-0.33 0.65,-0.65 1.591,-1.31 0.689,-0.47 1.479,-1.09 1.479,-2.311 0,-1.44 -1.079,-2.239 -2.439,-2.239 -0.63,0 -2.319,0.2 -2.319,2.509 -10e-4,0 1.357,0 1.357,0 z"
   id="path361" />
	</g>
	<g
   transform="translate(175.9053,231.9331)"
   id="g367">
		<path
   fill="#000000"
   d="m 13.098,2.442 c 0,4.381 2.274,4.913 3.139,4.913 0.865,0 3.139,-0.532 3.139,-4.913 0,-4.381 -2.274,-4.913 -3.139,-4.913 -0.865,0 -3.139,0.533 -3.139,4.913 z m 1.364,0 c 0,-2.614 1.038,-3.264 1.775,-3.264 0.737,0 1.775,0.65 1.775,3.264 0,2.614 -1.038,3.264 -1.775,3.264 -0.737,0 -1.775,-0.65 -1.775,-3.264 z m 7.371,0.741 h 2.876 v -1.65 h -2.876 v -2.108 h 3.285 v -1.649 h -4.649 v 9.332 h 1.364 z m 7.981,-5.407 H 28.45 v 9.332 h 1.364 z m 4.049,1.65 h 1.975 v -1.649 h -5.313 v 1.649 H 32.5 v 7.683 h 1.364 v -7.683 z"
   id="path365" />
	</g>
	<g
   transform="translate(175.9053,231.9331)"
   id="g371">
		<path
   fill="#000000"
   d="m 17.16,-9.934 c 0.592,0 1.448,0.052 1.448,1.314 0,1.028 -0.446,1.522 -0.956,1.522 -0.856,0 -0.947,-1.119 -0.947,-1.613 0,0 0.009,-0.013 0.009,-0.013 0,0 -1.246,0 -1.246,0 0,2.886 1.637,3.08 2.247,3.08 1.301,0 2.202,-1.234 2.202,-2.976 0,-1.573 -0.746,-2.054 -0.973,-2.145 0,0 0,-0.026 0,-0.026 0.364,-0.234 0.773,-0.819 0.773,-1.755 0,-1.95 -1.136,-2.573 -2.001,-2.573 -1.456,0 -2.138,1.234 -2.138,2.963 0,0 1.182,0 1.182,0 0,-0.325 0,-1.509 0.874,-1.509 0.701,0 0.81,0.846 0.81,1.184 0,1.197 -0.701,1.249 -1.084,1.249 0,0 -0.2,0 -0.2,0 0,0 0,1.298 0,1.298 z m 3.414,-0.455 c 0,3.238 0.718,4.744 2.238,4.744 1.52,0 2.238,-1.506 2.238,-4.744 0,-3.238 -0.718,-4.731 -2.238,-4.731 -1.52,0 -2.238,1.494 -2.238,4.731 z m 1.309,0 c 0,-2.38 0.2,-3.277 0.929,-3.277 0.728,0 0.929,0.897 0.929,3.277 0,2.38 -0.2,3.29 -0.929,3.29 -0.729,0 -0.929,-0.91 -0.929,-3.29 z m 4.65,-2.366 c 0,-0.572 0.328,-1.028 0.719,-1.028 0.392,0 0.719,0.455 0.719,1.028 0,0.572 -0.328,1.028 -0.719,1.028 -0.391,0 -0.719,-0.455 -0.719,-1.028 z m -0.936,0 c 0,1.326 0.745,2.365 1.656,2.365 0.901,0 1.656,-1.052 1.656,-2.365 0,-1.3 -0.754,-2.365 -1.656,-2.365 -0.911,0 -1.656,1.052 -1.656,2.365 z m 5.914,-2.365 h -0.674 l -3.621,9.475 h 0.674 z m -1.646,7.019 c 0,1.326 0.745,2.365 1.656,2.365 0.901,0 1.656,-1.052 1.656,-2.365 0,-1.3 -0.754,-2.365 -1.656,-2.365 -0.911,0 -1.656,1.052 -1.656,2.365 z m 0.936,0 c 0,-0.572 0.328,-1.028 0.719,-1.028 0.392,0 0.719,0.455 0.719,1.028 0,0.573 -0.328,1.028 -0.719,1.028 -0.391,0 -0.719,-0.455 -0.719,-1.028 z"
   id="path369" />
	</g>
	<g
   transform="translate(215.5903,234.1063)"
   id="g375">
		<path
   fill="#000000"
   d="m 11.362,-10.248 h -2.47 v 2.016 h 2.47 v 3.546 h 1.411 v -3.546 h 2.47 v -2.016 h -2.47 v -3.546 h -1.411 z m 10.029,-2.988 c 0,-1.836 0.819,-2.16 1.273,-2.16 0.907,0 1.348,0.9 1.348,2.358 0,1.512 -0.68,2.142 -1.298,2.142 -0.668,0 -1.323,-0.414 -1.323,-2.34 z m -1.587,5.598 c 0.151,2.034 1.247,3.294 2.772,3.294 1.613,0 3.251,-1.602 3.251,-6.552 0,-1.8 -0.05,-6.57 -3.15,-6.57 -1.751,0 -3.049,1.458 -3.049,4.59 0,2.142 0.995,3.996 2.709,3.996 0.605,0 1.298,-0.216 1.701,-1.08 0,0 0.025,0.036 0.025,0.036 -0.013,2.682 -0.744,3.564 -1.475,3.564 -0.542,0 -0.932,-0.378 -1.033,-1.26 0,0 0,-0.018 0,-0.018 0,0 -1.751,0 -1.751,0 z m 8.593,-5.598 c 0,-1.836 0.819,-2.16 1.273,-2.16 0.907,0 1.348,0.9 1.348,2.358 0,1.512 -0.68,2.142 -1.298,2.142 -0.668,0 -1.323,-0.414 -1.323,-2.34 z m -1.588,5.598 c 0.151,2.034 1.247,3.294 2.772,3.294 1.613,0 3.251,-1.602 3.251,-6.552 0,-1.8 -0.05,-6.57 -3.15,-6.57 -1.751,0 -3.049,1.458 -3.049,4.59 0,2.142 0.995,3.996 2.709,3.996 0.605,0 1.298,-0.216 1.701,-1.08 0,0 0.025,0.036 0.025,0.036 -0.013,2.682 -0.743,3.564 -1.474,3.564 -0.542,0 -0.932,-0.378 -1.033,-1.26 0,0 0,-0.018 0,-0.018 0,0 -1.752,0 -1.752,0 z m 13.104,-9.612 h -6.3 l -0.038,2.232 c 0,0 4.448,0 4.448,0 -0.756,1.152 -2.999,5.22 -3.188,10.332 0,0 1.814,0 1.814,0 0.214,-5.508 2.407,-9.288 3.263,-10.62 10e-4,0 10e-4,-1.944 10e-4,-1.944 z"
   id="path373" />
	</g>
	<g
   transform="translate(293.614,233.752)"
   id="g379">
		<path
   fill="#000000"
   d="M 15.57,-10.68 H 8.564 v 1.908 h 7.006 z m 7.018,-1.602 c -0.756,0 -1.147,-0.828 -1.147,-1.584 0,-0.936 0.416,-1.584 1.21,-1.584 0.567,0 1.033,0.612 1.033,1.584 0,0.918 -0.403,1.584 -1.096,1.584 z m 3.087,3.798 c 0,-1.656 -0.479,-2.466 -1.336,-3.078 0.718,-0.54 1.033,-1.476 1.033,-2.574 0,-1.764 -0.983,-3.33 -2.835,-3.33 -1.562,0 -2.785,1.314 -2.785,3.492 0,1.188 0.378,1.998 1.084,2.502 -1.361,0.9 -1.361,2.592 -1.361,3.24 0,1.746 0.794,3.888 3.1,3.888 2.369,0 3.1,-2.52 3.1,-4.14 z m -1.814,0.108 c 0,0.882 -0.353,2.016 -1.273,2.016 -0.806,0 -1.298,-0.81 -1.298,-2.034 0,-1.386 0.617,-1.98 1.26,-1.98 0.983,0 1.311,1.098 1.311,1.998 z m 5.733,-3.906 c -0.756,0 -1.147,-0.828 -1.147,-1.584 0,-0.936 0.416,-1.584 1.21,-1.584 0.567,0 1.033,0.612 1.033,1.584 0,0.918 -0.403,1.584 -1.096,1.584 z m 3.087,3.798 c 0,-1.656 -0.479,-2.466 -1.336,-3.078 0.718,-0.54 1.033,-1.476 1.033,-2.574 0,-1.764 -0.983,-3.33 -2.835,-3.33 -1.562,0 -2.785,1.314 -2.785,3.492 0,1.188 0.378,1.998 1.084,2.502 -1.361,0.9 -1.361,2.592 -1.361,3.24 0,1.746 0.794,3.888 3.1,3.888 2.369,0 3.1,-2.52 3.1,-4.14 z m -1.815,0.108 c 0,0.882 -0.353,2.016 -1.273,2.016 -0.806,0 -1.298,-0.81 -1.298,-2.034 0,-1.386 0.617,-1.98 1.26,-1.98 0.984,0 1.311,1.098 1.311,1.998 z m 8.871,-8.874 h -6.3 l -0.038,2.232 c 0,0 4.448,0 4.448,0 -0.756,1.152 -2.999,5.22 -3.188,10.332 0,0 1.814,0 1.814,0 0.214,-5.508 2.407,-9.288 3.263,-10.62 0.001,0 0.001,-1.944 0.001,-1.944 z"
   id="path377" />
	</g>
	<g
   transform="translate(254.7793,99.3425)"
   id="g383">
		<path
   fill="#000000"
   d="m 20.106,-9.564 2.205,-4.698 h -2.079 l -1.109,2.79 -1.134,-2.79 h -2.142 l 2.192,4.698 -2.281,4.878 h 2.129 l 1.159,-2.88 1.159,2.88 h 2.18 z m 8.114,-3.384 c 0.013,-0.936 0.05,-2.394 1.285,-2.394 0.857,0 1.235,0.972 1.235,1.818 0,1.44 -0.643,2.088 -2.255,3.762 -1.94,2.016 -2.016,3.582 -2.079,5.076 0,0 6.111,0 6.111,0 v -2.232 c 0,0 -3.881,0 -3.881,0 0.202,-0.594 0.819,-1.17 2.003,-2.358 0.869,-0.846 1.865,-1.962 1.865,-4.158 0,-2.592 -1.361,-4.032 -3.074,-4.032 -0.794,0 -2.923,0.36 -2.923,4.518 0,0 1.713,0 1.713,0 z"
   id="path381" />
	</g>
	<g
   transform="translate(372.8423,99.3189)"
   id="g387">
		<path
   fill="#000000"
   d="m 18.367,-10.248 h -2.47 v 2.016 h 2.47 v 3.546 h 1.411 v -3.546 h 2.47 v -2.016 h -2.47 v -3.546 h -1.411 z m 10.03,-2.988 c 0,-1.836 0.819,-2.16 1.273,-2.16 0.907,0 1.348,0.9 1.348,2.358 0,1.512 -0.68,2.142 -1.298,2.142 -0.668,0 -1.323,-0.414 -1.323,-2.34 z m -1.588,5.598 c 0.151,2.034 1.247,3.294 2.772,3.294 1.613,0 3.251,-1.602 3.251,-6.552 0,-1.8 -0.05,-6.57 -3.15,-6.57 -1.751,0 -3.049,1.458 -3.049,4.59 0,2.142 0.995,3.996 2.709,3.996 0.605,0 1.298,-0.216 1.701,-1.08 0,0 0.025,0.036 0.025,0.036 -0.013,2.682 -0.743,3.564 -1.474,3.564 -0.542,0 -0.932,-0.378 -1.033,-1.26 0,0 0,-0.018 0,-0.018 0,0 -1.752,0 -1.752,0 z"
   id="path385" />
	</g>
	<g
   transform="translate(332.9211,164.752)"
   id="g391">
		<path
   fill="#000000"
   d="m 20.106,-7.179 2.205,-4.698 h -2.079 l -1.109,2.79 -1.134,-2.79 h -2.142 l 2.192,4.698 -2.281,4.878 h 2.129 l 1.159,-2.88 1.159,2.88 h 2.18 z m 8.48,-5.562 h 3.641 v -2.124 h -4.914 l -0.617,7.02 c 0,0 1.575,0.108 1.575,0.108 0.34,-0.9 0.945,-0.918 1.184,-0.918 0.932,0 1.31,1.152 1.31,2.286 0,1.368 -0.491,2.394 -1.336,2.394 -0.781,0 -1.172,-0.702 -1.247,-1.746 0,0 -1.764,0 -1.764,0 0.088,2.574 1.512,3.762 2.911,3.762 2.633,0 3.251,-2.844 3.251,-4.59 0,-2.934 -1.512,-4.122 -2.709,-4.122 -0.869,0 -1.273,0.378 -1.6,0.702 0,0 0.315,-2.772 0.315,-2.772 z"
   id="path389" />
	</g>
	<g
   transform="translate(274.7008,225.4016)"
   id="g395">
		<path
   fill="#000000"
   d="m -4.572,-2.478 h -1.784 v 1.454 h 1.784 v 2.561 h 1.018 v -2.561 h 1.784 v -1.454 h -1.784 v -2.561 h -1.018 z"
   id="path393" />
	</g>
	<g
   transform="translate(372.9132,232.3583)"
   id="g399">
		<path
   fill="#000000"
   d="m 20.106,-7.179 2.205,-4.698 h -2.079 l -1.109,2.79 -1.134,-2.79 h -2.142 l 2.192,4.698 -2.281,4.878 h 2.129 l 1.159,-2.88 1.159,2.88 h 2.18 z m 8.48,-5.562 h 3.641 v -2.124 h -4.914 l -0.617,7.02 c 0,0 1.575,0.108 1.575,0.108 0.34,-0.9 0.945,-0.918 1.184,-0.918 0.932,0 1.31,1.152 1.31,2.286 0,1.368 -0.491,2.394 -1.336,2.394 -0.781,0 -1.172,-0.702 -1.247,-1.746 0,0 -1.764,0 -1.764,0 0.088,2.574 1.512,3.762 2.911,3.762 2.633,0 3.251,-2.844 3.251,-4.59 0,-2.934 -1.512,-4.122 -2.709,-4.122 -0.869,0 -1.273,0.378 -1.6,0.702 0,0 0.315,-2.772 0.315,-2.772 z"
   id="path397" />
	</g>
</g>
</svg>
